<?xml version="1.0" standalone="no"?>
<!DOCTYPE svg PUBLIC "-//W3C//DTD SVG 20010904//EN"
 "http://www.w3.org/TR/2001/REC-SVG-20010904/DTD/svg10.dtd">
<svg version="1.0" xmlns="http://www.w3.org/2000/svg"
 width="1240.000000pt" height="1240.000000pt" viewBox="0 0 1240.000000 1240.000000"
 preserveAspectRatio="xMidYMid meet">
<metadata>
Created by potrace 1.14, written by Peter Selinger 2001-2017
</metadata>
<g transform="translate(0.000000,1240.000000) scale(0.100000,-0.100000)"
fill="#000000" stroke="none">
<path d="M107 9788 c26 -35 59 -75 73 -90 40 -44 50 -57 50 -65 0 -5 9 -14 20
-21 11 -7 20 -17 20 -22 0 -6 8 -18 18 -28 9 -10 33 -38 52 -62 19 -24 47 -58
61 -75 14 -16 34 -41 45 -54 10 -13 31 -38 45 -55 26 -31 553 -680 739 -910 8
-10 20 -23 25 -30 6 -6 28 -34 49 -61 22 -28 44 -54 50 -60 6 -5 30 -35 53
-65 23 -30 50 -64 60 -75 10 -11 30 -36 44 -55 15 -19 37 -46 49 -60 12 -14
34 -41 49 -60 14 -19 34 -42 43 -51 10 -9 18 -19 18 -22 0 -3 11 -18 24 -33
14 -16 78 -94 143 -174 65 -80 123 -152 130 -160 7 -8 65 -80 130 -158 65 -79
123 -151 128 -159 6 -8 27 -34 48 -56 20 -23 37 -48 37 -54 0 -7 4 -13 9 -13
4 0 30 -28 57 -62 27 -35 53 -68 59 -74 5 -6 21 -25 35 -43 14 -18 32 -40 41
-49 8 -10 33 -39 54 -67 21 -27 44 -54 50 -60 6 -5 21 -26 35 -45 13 -19 31
-42 39 -51 26 -26 61 -69 61 -74 0 -2 10 -15 23 -28 46 -51 77 -88 77 -93 0
-6 34 -47 106 -127 19 -21 34 -41 34 -45 0 -4 16 -24 35 -45 18 -20 47 -54 62
-74 15 -21 40 -51 54 -68 15 -16 87 -104 160 -195 73 -91 138 -170 144 -176 6
-6 28 -34 50 -62 21 -29 43 -52 47 -52 4 0 8 -6 8 -14 0 -8 3 -16 8 -18 4 -1
25 -25 47 -53 22 -27 53 -66 70 -86 16 -20 37 -44 45 -55 79 -99 196 -241 209
-251 8 -7 12 -13 8 -13 -4 0 4 -12 17 -27 45 -51 61 -70 86 -104 14 -18 35
-44 48 -57 12 -12 22 -25 22 -28 0 -3 6 -11 13 -18 14 -14 29 -33 220 -270 76
-94 152 -187 170 -208 18 -20 42 -49 54 -65 12 -15 30 -38 40 -50 10 -12 28
-35 40 -51 12 -16 33 -40 45 -53 13 -14 45 -54 73 -90 27 -35 52 -66 55 -69 3
-3 44 -52 90 -110 46 -58 89 -110 95 -116 5 -6 21 -26 35 -44 14 -18 35 -44
48 -56 12 -13 22 -27 22 -33 0 -5 3 -11 8 -13 4 -1 36 -39 72 -83 35 -44 67
-82 70 -85 3 -3 21 -25 40 -50 19 -25 37 -47 40 -50 3 -3 33 -39 65 -80 33
-41 62 -77 66 -80 3 -3 54 -66 114 -140 60 -74 114 -140 120 -147 5 -6 21 -26
35 -44 14 -18 30 -37 35 -43 6 -6 58 -69 115 -141 57 -71 109 -135 115 -141 5
-6 21 -26 35 -44 14 -18 33 -42 44 -54 10 -11 30 -37 45 -56 14 -19 33 -42 42
-50 9 -8 18 -22 21 -30 3 -11 10 -7 29 14 13 16 29 34 34 40 6 6 26 31 45 56
19 25 37 47 40 50 3 3 23 28 45 55 58 73 69 86 80 99 13 14 95 114 115 140 8
10 27 33 41 50 15 17 50 60 78 96 28 36 59 74 69 85 9 11 34 43 56 70 22 28
42 52 45 55 5 4 58 70 181 223 8 11 20 24 25 31 6 6 58 70 115 141 58 72 108
132 111 135 3 3 41 50 85 105 82 103 94 118 131 159 13 14 23 30 23 35 0 5 3
11 7 13 5 1 30 30 58 63 27 33 54 65 60 71 5 6 21 26 35 44 14 18 30 38 35 44
6 6 22 27 36 46 15 19 35 44 46 55 10 11 29 34 41 50 27 35 52 66 159 195 43
53 92 113 108 134 45 57 78 97 100 122 11 12 29 35 40 50 11 15 25 32 30 38 6
6 58 70 115 141 58 72 107 132 110 135 3 3 52 64 110 135 57 72 109 135 115
141 5 6 22 26 37 45 35 45 226 280 413 508 83 101 162 198 176 217 37 48 89
112 124 154 34 40 46 54 60 72 6 7 43 54 83 103 40 50 78 97 85 105 7 8 32 40
57 70 25 30 48 60 53 65 4 6 17 21 28 35 12 14 33 41 48 60 14 19 31 40 37 45
9 8 157 190 201 245 6 8 39 49 73 90 33 41 66 82 73 90 7 8 30 38 52 65 22 28
42 52 45 55 3 3 23 28 45 55 22 28 44 55 50 61 5 6 21 26 35 44 24 32 73 93
95 116 6 6 21 25 35 43 14 18 30 38 35 45 20 24 95 115 225 276 74 91 138 167
142 168 4 2 8 8 8 12 0 5 12 22 28 38 15 16 36 42 47 57 11 16 25 33 30 39 6
6 26 31 45 56 19 25 37 47 41 50 3 3 55 66 115 140 59 74 112 137 116 138 4 2
8 8 8 13 0 5 8 17 18 27 41 44 72 83 72 92 0 5 3 10 8 10 4 0 27 26 52 58 54
69 79 99 103 124 9 10 17 20 17 23 0 3 8 13 18 24 9 10 31 35 47 56 46 58 79
99 90 111 5 6 75 92 155 190 79 98 149 184 155 190 5 6 21 26 35 44 14 18 37
47 52 64 15 17 28 34 28 39 0 4 -2763 7 -6141 7 l-6140 0 48 -62z m10233 -966
c0 -4 -10 -18 -23 -32 -12 -14 -44 -52 -71 -85 -62 -78 -109 -135 -121 -149
-5 -6 -37 -45 -70 -86 -33 -41 -67 -84 -77 -95 -9 -11 -53 -65 -97 -120 -45
-55 -87 -107 -93 -115 -27 -30 -74 -89 -103 -125 -16 -22 -67 -84 -113 -139
-46 -56 -89 -108 -95 -116 -54 -69 -133 -167 -142 -175 -5 -5 -26 -30 -45 -55
-50 -65 -48 -63 -71 -90 -12 -14 -34 -41 -49 -60 -16 -19 -64 -78 -107 -131
-43 -52 -132 -162 -198 -244 -66 -81 -165 -203 -220 -269 -55 -67 -113 -139
-130 -161 -16 -21 -40 -50 -52 -64 -13 -14 -57 -69 -99 -121 -42 -52 -86 -106
-97 -120 -20 -23 -86 -104 -112 -138 -5 -7 -22 -27 -37 -43 -16 -16 -28 -32
-28 -35 0 -3 -21 -31 -47 -62 -27 -31 -55 -65 -64 -77 -10 -11 -61 -74 -115
-141 -55 -67 -115 -141 -134 -164 -43 -54 -226 -278 -249 -305 -9 -11 -54 -67
-101 -125 -46 -58 -87 -107 -90 -110 -3 -3 -41 -50 -85 -105 -43 -55 -84 -105
-90 -111 -12 -13 -24 -29 -80 -99 -22 -27 -46 -57 -55 -67 -8 -9 -26 -31 -40
-49 -14 -18 -35 -44 -47 -57 -13 -14 -23 -28 -23 -31 0 -3 -15 -22 -33 -42
-17 -20 -39 -45 -47 -55 -8 -11 -33 -41 -55 -69 -22 -27 -42 -52 -45 -55 -3
-3 -23 -27 -45 -55 -22 -27 -44 -55 -50 -61 -5 -6 -50 -62 -100 -123 -49 -62
-104 -129 -122 -149 -18 -20 -60 -74 -95 -119 -63 -82 -80 -95 -95 -69 -4 7
-23 31 -41 52 -18 22 -54 66 -80 99 -26 33 -53 64 -59 68 -7 4 -13 12 -13 17
0 5 -10 20 -22 33 -30 31 -57 63 -93 112 -16 22 -34 45 -40 50 -6 6 -28 32
-50 60 -22 27 -45 55 -50 61 -6 6 -28 34 -50 62 -21 29 -43 52 -47 52 -4 0 -8
6 -8 14 0 8 -3 16 -7 18 -5 2 -32 32 -61 68 -59 72 -92 112 -122 150 -12 14
-31 37 -43 52 -12 14 -34 41 -49 60 -14 18 -81 101 -148 183 -67 83 -162 200
-211 260 -49 61 -97 119 -106 130 -10 11 -45 54 -78 95 -32 41 -72 89 -87 105
-15 17 -28 33 -28 37 0 4 -8 15 -18 25 -10 10 -56 65 -103 123 -46 58 -136
168 -199 246 -63 77 -128 157 -145 179 -16 21 -35 43 -40 49 -6 6 -30 36 -55
66 -25 30 -47 57 -50 60 -3 3 -18 23 -35 45 -16 22 -34 45 -40 50 -7 6 -27 30
-46 55 -19 25 -44 56 -56 70 -11 14 -46 57 -77 95 -31 39 -62 77 -69 85 -11
12 -206 253 -242 298 -14 18 -26 32 -60 73 -16 19 -41 50 -55 69 -14 18 -30
38 -35 44 -6 6 -60 72 -120 146 -119 148 -197 242 -206 250 -3 3 -12 14 -20
26 -14 20 -84 106 -104 128 -6 6 -24 29 -40 51 -17 22 -35 45 -41 50 -5 6 -28
33 -49 60 -22 28 -42 52 -45 55 -4 4 -178 219 -222 275 -5 6 -17 20 -27 33
-11 13 -34 42 -53 65 -18 22 -41 49 -50 59 -10 10 -18 22 -18 27 0 5 -3 11 -8
13 -4 2 -47 53 -96 113 -50 61 -96 117 -103 125 -7 8 -34 41 -59 73 l-45 57
4140 0 c2278 0 4141 -3 4141 -8z"/>
<path d="M4053 7805 c5 -11 15 -25 21 -31 6 -6 23 -26 38 -45 14 -19 35 -44
45 -56 10 -12 30 -37 45 -55 15 -18 62 -76 105 -129 43 -52 92 -113 108 -134
17 -21 46 -57 65 -80 19 -22 46 -56 60 -74 14 -17 35 -44 48 -59 12 -15 26
-31 30 -37 4 -5 27 -35 52 -65 25 -30 50 -62 57 -70 54 -69 110 -138 122 -150
13 -13 79 -15 465 -17 248 0 456 -1 461 -2 8 -1 11 -185 11 -581 l0 -580 22
-16 c12 -8 22 -19 22 -24 0 -5 12 -22 28 -38 15 -16 84 -101 154 -188 69 -88
136 -170 148 -184 12 -14 26 -32 30 -40 7 -12 13 -9 32 15 13 16 58 73 101
125 43 52 90 110 105 129 15 19 43 53 62 76 38 46 48 59 98 121 l32 42 0 571
c0 314 3 571 8 572 4 0 212 2 463 2 390 2 457 4 470 17 8 8 57 67 111 130 53
63 106 125 117 138 12 12 19 22 16 22 -3 0 8 13 25 30 16 16 30 34 30 39 0 5
4 11 9 13 5 2 56 60 114 130 58 70 111 134 118 142 8 8 28 31 44 52 17 20 55
67 85 103 144 173 160 192 160 199 0 4 -54 7 -119 7 -66 0 -117 -3 -115 -7 2
-4 -9 -3 -26 2 -37 11 -40 11 -62 -1 -10 -5 -18 -6 -18 -2 0 10 -173 8 -189
-1 -6 -4 -11 -4 -11 1 0 9 -260 9 -284 0 -9 -4 -16 -3 -16 2 0 9 -74 6 -89 -4
-5 -3 -11 0 -13 6 -2 7 -12 7 -31 0 -15 -6 -27 -7 -27 -3 0 9 -123 7 -145 -2
-8 -3 -15 -2 -15 3 0 9 -74 6 -89 -4 -5 -3 -11 0 -13 6 -2 7 -12 7 -31 0 -15
-6 -27 -7 -27 -3 0 9 -154 7 -169 -2 -6 -4 -11 -4 -11 1 0 4 -40 8 -89 8 -49
0 -87 -3 -85 -7 2 -4 -9 -3 -26 2 -37 11 -40 11 -62 -1 -10 -5 -18 -6 -18 -2
0 10 -173 8 -189 -1 -6 -4 -11 -4 -11 1 0 4 -40 8 -89 8 -49 0 -87 -3 -85 -7
4 -6 -52 7 -59 13 -1 1 -12 -3 -24 -10 -13 -6 -23 -8 -23 -4 0 10 -173 8 -189
-1 -6 -4 -11 -4 -11 1 0 9 -260 9 -284 0 -9 -4 -16 -3 -16 2 0 9 -74 6 -89 -4
-5 -3 -11 0 -13 6 -2 7 -12 7 -31 0 -15 -6 -27 -7 -27 -3 0 9 -123 7 -145 -2
-8 -3 -15 -2 -15 3 0 9 -74 6 -89 -4 -5 -3 -11 0 -13 6 -2 7 -12 7 -31 0 -15
-6 -27 -7 -27 -3 0 4 -9 8 -20 9 -11 1 -18 -2 -15 -7 4 -7 -50 3 -58 11 -1 1
-12 -3 -24 -10 -13 -6 -23 -8 -23 -4 0 10 -173 8 -189 -1 -6 -4 -11 -4 -11 1
0 4 -40 8 -89 8 -49 0 -87 -3 -85 -7 2 -4 -9 -3 -26 2 -37 11 -40 10 -62 -1
-10 -6 -18 -5 -20 2 -2 7 -12 7 -31 0 -16 -6 -26 -8 -24 -3 6 9 -76 8 -91 -2
-7 -4 -12 -4 -12 1 0 10 -173 8 -189 -1 -6 -4 -11 -4 -11 1 0 4 -29 8 -64 8
-61 0 -63 -1 -53 -20z"/>
</g>
</svg>
