<svg version="1.1" xmlns="http://www.w3.org/2000/svg" viewBox="0 0 940.974609375 551.3984375" width="1881.94921875" height="1102.796875">
  <!-- svg-source:excalidraw -->
  
  <defs>
    <style class="style-fonts">
      @font-face {
        font-family: "Virgil";
        src: url("https://excalidraw.com/Virgil.woff2");
      }
      @font-face {
        font-family: "Cascadia";
        src: url("https://excalidraw.com/Cascadia.woff2");
      }
    </style>
  </defs>
  <rect x="0" y="0" width="940.974609375" height="551.3984375" fill="#ffffff"></rect><g stroke-linecap="round" transform="translate(237.21484375 59.8671875) rotate(0 241.060546875 94.34765625)"><path d="M32 0 L450.12 0 L457.62 0.5 L464.12 2 L469.62 4.5 L474.12 8 L477.62 12.5 L480.12 18 L481.62 24.5 L482.12 156.7 L481.62 164.2 L480.12 170.7 L477.62 176.2 L474.12 180.7 L469.62 184.2 L464.12 186.7 L457.62 188.2 L450.12 188.7 L32 188.7 L24.5 188.2 L18 186.7 L12.5 184.2 L8 180.7 L4.5 176.2 L2 170.7 L0.5 164.2 L0 156.7 L0.5 24.5 L2 18 L4.5 12.5 L8 8 L12.5 4.5 L18 2 L24.5 0.5 L32 0" stroke="none" stroke-width="0" fill="#fab005"></path><path d="M32 0 M32 0 C170.08 0, 308.16 0, 450.12 0 M32 0 C145.74 0, 259.48 0, 450.12 0 M450.12 0 C471.45 0, 482.12 10.67, 482.12 32 M450.12 0 C471.45 0, 482.12 10.67, 482.12 32 M482.12 32 C482.12 66.1, 482.12 100.2, 482.12 156.7 M482.12 32 C482.12 67.18, 482.12 102.35, 482.12 156.7 M482.12 156.7 C482.12 178.03, 471.45 188.7, 450.12 188.7 M482.12 156.7 C482.12 178.03, 471.45 188.7, 450.12 188.7 M450.12 188.7 C358.07 188.7, 266.02 188.7, 32 188.7 M450.12 188.7 C350.74 188.7, 251.36 188.7, 32 188.7 M32 188.7 C10.67 188.7, 0 178.03, 0 156.7 M32 188.7 C10.67 188.7, 0 178.03, 0 156.7 M0 156.7 C0 124.61, 0 92.52, 0 32 M0 156.7 C0 116.89, 0 77.09, 0 32 M0 32 C0 10.67, 10.67 0, 32 0 M0 32 C0 10.67, 10.67 0, 32 0" stroke="#000000" stroke-width="1" fill="none"></path></g><g stroke-linecap="round" transform="translate(252.046875 104.921875) rotate(0 107.5 42.5)"><path d="M21.25 0 M21.25 0 C62.37 0, 103.5 0, 193.75 0 M21.25 0 C84.99 0, 148.72 0, 193.75 0 M193.75 0 C207.92 0, 215 7.08, 215 21.25 M193.75 0 C207.92 0, 215 7.08, 215 21.25 M215 21.25 C215 33.3, 215 45.35, 215 63.75 M215 21.25 C215 36.27, 215 51.3, 215 63.75 M215 63.75 C215 77.92, 207.92 85, 193.75 85 M215 63.75 C215 77.92, 207.92 85, 193.75 85 M193.75 85 C154.61 85, 115.47 85, 21.25 85 M193.75 85 C132.34 85, 70.93 85, 21.25 85 M21.25 85 C7.08 85, 0 77.92, 0 63.75 M21.25 85 C7.08 85, 0 77.92, 0 63.75 M0 63.75 C0 53.18, 0 42.61, 0 21.25 M0 63.75 C0 49.82, 0 35.88, 0 21.25 M0 21.25 C0 7.08, 7.08 0, 21.25 0 M0 21.25 C0 7.08, 7.08 0, 21.25 0" stroke="#000000" stroke-width="1" fill="none"></path></g><g stroke-linecap="round" transform="translate(494.66015625 104.34765625) rotate(0 99.5 38.5)"><path d="M19.25 0 M19.25 0 C79.27 0, 139.29 0, 179.75 0 M19.25 0 C52.25 0, 85.24 0, 179.75 0 M179.75 0 C192.58 0, 199 6.42, 199 19.25 M179.75 0 C192.58 0, 199 6.42, 199 19.25 M199 19.25 C199 30.27, 199 41.29, 199 57.75 M199 19.25 C199 30.73, 199 42.2, 199 57.75 M199 57.75 C199 70.58, 192.58 77, 179.75 77 M199 57.75 C199 70.58, 192.58 77, 179.75 77 M179.75 77 C118.63 77, 57.51 77, 19.25 77 M179.75 77 C129.37 77, 78.98 77, 19.25 77 M19.25 77 C6.42 77, 0 70.58, 0 57.75 M19.25 77 C6.42 77, 0 70.58, 0 57.75 M0 57.75 C0 48.15, 0 38.55, 0 19.25 M0 57.75 C0 45.77, 0 33.78, 0 19.25 M0 19.25 C0 6.42, 6.42 0, 19.25 0 M0 19.25 C0 6.42, 6.42 0, 19.25 0" stroke="#000000" stroke-width="1" fill="none"></path></g><g stroke-linecap="round" transform="translate(381.890625 199.45703125) rotate(0 81 21)"><path d="M10.5 0 M10.5 0 C55.84 2.37, 102.25 2.58, 151.5 0 M10.5 0 C62.75 0.19, 115.98 0.8, 151.5 0 M151.5 0 C158.73 -1.47, 161.21 2.9, 162 10.5 M151.5 0 C160.27 1.4, 162.23 3.5, 162 10.5 M162 10.5 C163.03 15.13, 161.8 20.16, 162 31.5 M162 10.5 C161.54 17.47, 161.38 26.08, 162 31.5 M162 31.5 C163.67 36.93, 156.9 42.33, 151.5 42 M162 31.5 C163.61 40.04, 158.65 39.94, 151.5 42 M151.5 42 C120.64 41.9, 87.66 41.57, 10.5 42 M151.5 42 C119.08 41.02, 87.39 41.05, 10.5 42 M10.5 42 C3.75 41.57, 0.35 38.66, 0 31.5 M10.5 42 C4.98 43.66, -0.13 38.49, 0 31.5 M0 31.5 C1.08 25.92, -0.79 16.78, 0 10.5 M0 31.5 C-0.75 23.42, -0.1 14.29, 0 10.5 M0 10.5 C1.38 2.54, 4.35 1.3, 10.5 0 M0 10.5 C-1.13 3.04, 2.27 1.69, 10.5 0" stroke="#000000" stroke-width="1" fill="none"></path></g><g transform="translate(279.546875 122.421875) rotate(0 80 25)"><text x="80" y="18" font-family="Virgil, Segoe UI Emoji" font-size="20px" fill="#000000" text-anchor="middle" style="white-space: pre;" direction="ltr">Mapping to </text><text x="80" y="43" font-family="Virgil, Segoe UI Emoji" font-size="20px" fill="#000000" text-anchor="middle" style="white-space: pre;" direction="ltr">knowledge Graph</text></g><g transform="translate(509.66015625 117.84765625) rotate(0 84.5 25)"><text x="84.5" y="18" font-family="Virgil, Segoe UI Emoji" font-size="20px" fill="#000000" text-anchor="middle" style="white-space: pre;" direction="ltr">Online Knowledge </text><text x="84.5" y="43" font-family="Virgil, Segoe UI Emoji" font-size="20px" fill="#000000" text-anchor="middle" style="white-space: pre;" direction="ltr">Graph with Roles</text></g><g transform="translate(414.890625 207.95703125) rotate(0 48 12.5)"><text x="48" y="18" font-family="Virgil, Segoe UI Emoji" font-size="20px" fill="#000000" text-anchor="middle" style="white-space: pre;" direction="ltr">Rest API</text></g><g stroke-linecap="round" transform="translate(10 56.28125) rotate(0 92.673828125 94.34765625)"><path d="M32 0 M32 0 C59.78 2.95, 88.94 -0.07, 153.35 0 M32 0 C74.12 -0.24, 115.61 -1.2, 153.35 0 M153.35 0 C173.17 0.83, 187.15 12.55, 185.35 32 M153.35 0 C172.68 -0.72, 187.21 9.95, 185.35 32 M185.35 32 C186.06 64.29, 185.15 93.92, 185.35 156.7 M185.35 32 C184.72 77.06, 186.41 122.58, 185.35 156.7 M185.35 156.7 C184.45 176.14, 173.81 188.78, 153.35 188.7 M185.35 156.7 C186.85 177.47, 175.82 188.75, 153.35 188.7 M153.35 188.7 C119.49 188.8, 84.96 190.99, 32 188.7 M153.35 188.7 C105.03 188.54, 56.75 187.91, 32 188.7 M32 188.7 C12.63 189.09, 1.17 178.43, 0 156.7 M32 188.7 C10.18 188.59, 1.16 177.2, 0 156.7 M0 156.7 C-2.97 119.65, 0.8 82.39, 0 32 M0 156.7 C-0.52 129.2, 0.38 102.49, 0 32 M0 32 C-1.4 10.75, 12.66 -1.59, 32 0 M0 32 C1.46 12.61, 10.24 -2.16, 32 0" stroke="#000000" stroke-width="1" fill="none"></path></g><g stroke-linecap="round" transform="translate(17.33203125 79.6953125) rotate(0 81 21)"><path d="M10.5 0 M10.5 0 C51.52 -1.08, 94.13 0.25, 151.5 0 M10.5 0 C43.04 -0.4, 74.29 0.28, 151.5 0 M151.5 0 C156.52 -1.47, 163.84 2.46, 162 10.5 M151.5 0 C160.17 -0.38, 159.96 2.85, 162 10.5 M162 10.5 C162.61 17.65, 163.54 20.05, 162 31.5 M162 10.5 C162.16 18.17, 162.8 25.15, 162 31.5 M162 31.5 C163.66 38.56, 158.4 40.29, 151.5 42 M162 31.5 C161.19 37.22, 157.31 42.09, 151.5 42 M151.5 42 C108.69 43.05, 61.81 41.12, 10.5 42 M151.5 42 C110.58 42.49, 69.28 40.68, 10.5 42 M10.5 42 C2.77 42.31, 1.35 38.81, 0 31.5 M10.5 42 C2.8 40.17, 1.24 37.85, 0 31.5 M0 31.5 C0.65 24.48, -1.82 17.29, 0 10.5 M0 31.5 C0.82 23.02, -0.14 15.35, 0 10.5 M0 10.5 C-1.45 4.97, 3.05 1.26, 10.5 0 M0 10.5 C0.36 2.26, 3.54 1.12, 10.5 0" stroke="#000000" stroke-width="1" fill="none"></path></g><g stroke-linecap="round" transform="translate(21.3984375 133.5625) rotate(0 81 21)"><path d="M10.5 0 M10.5 0 C41.02 1.81, 68.58 0.18, 151.5 0 M10.5 0 C46.48 0.54, 82.45 0.99, 151.5 0 M151.5 0 C156.93 -0.89, 161.44 2.6, 162 10.5 M151.5 0 C156.57 1.01, 161.21 4.92, 162 10.5 M162 10.5 C162.9 18.95, 160.54 24.49, 162 31.5 M162 10.5 C161.6 17.04, 162.32 22.98, 162 31.5 M162 31.5 C163.24 38.35, 157.02 41.48, 151.5 42 M162 31.5 C162.38 37.73, 157.8 43.01, 151.5 42 M151.5 42 C114.61 42.05, 81.76 40.65, 10.5 42 M151.5 42 C98.1 40.93, 44.8 42.29, 10.5 42 M10.5 42 C2.53 42.37, -0.57 38.56, 0 31.5 M10.5 42 C2 44.07, 1.02 37.23, 0 31.5 M0 31.5 C-1.64 24.67, 1.84 15.55, 0 10.5 M0 31.5 C0.91 26.62, -0.68 21.64, 0 10.5 M0 10.5 C-1.04 3.51, 3.24 1.48, 10.5 0 M0 10.5 C1.13 4.19, 4.65 1.89, 10.5 0" stroke="#000000" stroke-width="1" fill="none"></path></g><g stroke-linecap="round" transform="translate(19.98046875 184.65625) rotate(0 81 21)"><path d="M10.5 0 M10.5 0 C60.29 0.05, 109.75 0.03, 151.5 0 M10.5 0 C45.92 -0.2, 79.68 0.12, 151.5 0 M151.5 0 C158.71 -0.37, 161.84 2.71, 162 10.5 M151.5 0 C158.53 1.96, 162.6 3.57, 162 10.5 M162 10.5 C160.38 14.13, 162.46 23.36, 162 31.5 M162 10.5 C162 15.78, 161.08 19.39, 162 31.5 M162 31.5 C163.83 37.2, 156.51 41.83, 151.5 42 M162 31.5 C163.71 40.74, 156.47 43.83, 151.5 42 M151.5 42 C98.3 43.8, 44.14 41.19, 10.5 42 M151.5 42 C111.93 40.43, 71.39 40.84, 10.5 42 M10.5 42 C2.14 43.71, 1.89 39.05, 0 31.5 M10.5 42 C2.44 42.57, 1.76 39.13, 0 31.5 M0 31.5 C1.75 23.04, -0.69 15.12, 0 10.5 M0 31.5 C0.68 23.64, -0.91 16.39, 0 10.5 M0 10.5 C0.67 4.26, 3.81 2, 10.5 0 M0 10.5 C-1.34 1.3, 3.5 1.63, 10.5 0" stroke="#000000" stroke-width="1" fill="none"></path></g><g transform="translate(34.33203125 88.1953125) rotate(0 64 12.5)"><text x="64" y="18" font-family="Virgil, Segoe UI Emoji" font-size="20px" fill="#000000" text-anchor="middle" style="white-space: pre;" direction="ltr">Atomic Data</text></g><g transform="translate(71.3984375 142.0625) rotate(0 31 12.5)"><text x="31" y="18" font-family="Virgil, Segoe UI Emoji" font-size="20px" fill="#000000" text-anchor="middle" style="white-space: pre;" direction="ltr">Notion</text></g><g transform="translate(24.98046875 193.15625) rotate(0 76 12.5)"><text x="76" y="18" font-family="Virgil, Segoe UI Emoji" font-size="20px" fill="#000000" text-anchor="middle" style="white-space: pre;" direction="ltr">Jira/Confluence</text></g><g transform="translate(33.56640625 10) rotate(0 70.5 12.5)"><text x="0" y="18" font-family="Virgil, Segoe UI Emoji" font-size="20px" fill="#000000" text-anchor="start" style="white-space: pre;" direction="ltr">Data Sources</text></g><g transform="translate(380.1640625 15.39453125) rotate(0 79 12.5)"><text x="0" y="18" font-family="Virgil, Segoe UI Emoji" font-size="20px" fill="#000000" text-anchor="start" style="white-space: pre;" direction="ltr">Terraphim Cloud</text></g><g stroke-linecap="round" transform="translate(745.626953125 57.86328125) rotate(0 92.673828125 94.34765625)"><path d="M32 0 M32 0 C61.39 -0.16, 87.82 1.31, 153.35 0 M32 0 C74.95 0.08, 120.13 0.34, 153.35 0 M153.35 0 C175.71 -1.42, 185.57 8.99, 185.35 32 M153.35 0 C175.19 0.71, 184.68 10.15, 185.35 32 M185.35 32 C187.25 72.39, 187.64 109.3, 185.35 156.7 M185.35 32 C183.99 60.57, 185.06 87.31, 185.35 156.7 M185.35 156.7 C186.79 176.29, 174.65 186.99, 153.35 188.7 M185.35 156.7 C185.95 180.21, 172.91 189.55, 153.35 188.7 M153.35 188.7 C121.59 186.83, 90.17 186.78, 32 188.7 M153.35 188.7 C110.18 188.2, 67.55 188.16, 32 188.7 M32 188.7 C11.63 188.76, 1.31 179.53, 0 156.7 M32 188.7 C11.49 189.34, -1.12 179.89, 0 156.7 M0 156.7 C-1.73 127.23, -1.9 98.02, 0 32 M0 156.7 C-0.52 115.23, 0.38 74.29, 0 32 M0 32 C-0.85 11.06, 8.96 -0.47, 32 0 M0 32 C1.38 12.67, 9.59 -0.88, 32 0" stroke="#000000" stroke-width="1" fill="none"></path></g><g stroke-linecap="round" transform="translate(752.958984375 81.27734375) rotate(0 81 17.5)"><path d="M8.75 0 M8.75 0 C46.59 -1.72, 86.77 0.54, 153.25 0 M8.75 0 C55.06 1.68, 102.16 1.92, 153.25 0 M153.25 0 C157.66 0.22, 160.32 3.36, 162 8.75 M153.25 0 C159.8 -0.66, 161.49 3.19, 162 8.75 M162 8.75 C163.39 16.49, 161.64 20.43, 162 26.25 M162 8.75 C162.78 13.17, 161.91 16.77, 162 26.25 M162 26.25 C160.26 32.05, 157.37 35.53, 153.25 35 M162 26.25 C164.18 30.31, 159.94 33.93, 153.25 35 M153.25 35 C107.53 32.69, 63.29 35.39, 8.75 35 M153.25 35 C115.7 35.07, 78.7 35.28, 8.75 35 M8.75 35 C2.98 36.31, 1.5 32.8, 0 26.25 M8.75 35 C3.56 33.88, 1.86 30.52, 0 26.25 M0 26.25 C-0.35 19.32, -0.61 16.23, 0 8.75 M0 26.25 C-0.01 21.03, 0.31 13.77, 0 8.75 M0 8.75 C0.4 1.21, 2.45 1.2, 8.75 0 M0 8.75 C2.01 1.84, 2.04 -1.99, 8.75 0" stroke="#000000" stroke-width="1" fill="none"></path></g><g stroke-linecap="round" transform="translate(757.025390625 134.9140625) rotate(0 81 17.5)"><path d="M8.75 0 M8.75 0 C42.65 1.23, 79.84 1.11, 153.25 0 M8.75 0 C45.06 0.49, 81.32 0.06, 153.25 0 M153.25 0 C159.31 -1.68, 162.44 3.54, 162 8.75 M153.25 0 C158.42 -0.51, 162.28 4.58, 162 8.75 M162 8.75 C163.31 14.54, 160.73 19.71, 162 26.25 M162 8.75 C162.68 14.48, 162.59 19.75, 162 26.25 M162 26.25 C161.97 30.37, 159.61 36.9, 153.25 35 M162 26.25 C160.23 32.94, 158.02 35.13, 153.25 35 M153.25 35 C112.11 32.29, 75.28 33, 8.75 35 M153.25 35 C109.09 33.53, 64.86 34.18, 8.75 35 M8.75 35 C4.22 36.5, 0.72 32.65, 0 26.25 M8.75 35 C1.8 36.86, -1.57 32.12, 0 26.25 M0 26.25 C-1.49 21.66, 0.7 19.37, 0 8.75 M0 26.25 C0.82 22.57, -0.38 18.73, 0 8.75 M0 8.75 C-1.71 2.45, 4.12 1.75, 8.75 0 M0 8.75 C-1.07 2.04, 0.92 0.66, 8.75 0" stroke="#000000" stroke-width="1" fill="none"></path></g><g stroke-linecap="round" transform="translate(757.365234375 179.84765625) rotate(0 81 30)"><path d="M15 0 M15 0 C61.58 1.92, 107.44 -0.34, 147 0 M15 0 C41.49 0.15, 67.84 -0.26, 147 0 M147 0 C155.32 0.44, 162.62 4.42, 162 15 M147 0 C156.49 0.28, 163.67 6.32, 162 15 M162 15 C161.69 23.95, 160.44 36.72, 162 45 M162 15 C162.07 23.97, 161.38 31.5, 162 45 M162 45 C160.29 55.53, 158.9 58.46, 147 60 M162 45 C162.86 53.93, 157.13 59.39, 147 60 M147 60 C112.21 60.03, 79.72 59.09, 15 60 M147 60 C108.6 60.84, 71.48 61.01, 15 60 M15 60 C6.5 60.72, 0.56 54.03, 0 45 M15 60 C6.86 58.43, 0.04 53.15, 0 45 M0 45 C-0.77 39.19, 1 30.52, 0 15 M0 45 C0.24 35.41, 0.25 25.82, 0 15 M0 15 C-0.47 6.2, 6.75 -0.93, 15 0 M0 15 C-0.88 3.01, 5.66 -2.01, 15 0" stroke="#000000" stroke-width="1" fill="none"></path></g><g transform="translate(772.458984375 86.27734375) rotate(0 61.5 12.5)"><text x="61.5" y="18" font-family="Virgil, Segoe UI Emoji" font-size="20px" fill="#000000" text-anchor="middle" style="white-space: pre;" direction="ltr"> Taxonomies</text></g><g transform="translate(776.525390625 139.9140625) rotate(0 61.5 12.5)"><text x="61.5" y="18" font-family="Virgil, Segoe UI Emoji" font-size="20px" fill="#000000" text-anchor="middle" style="white-space: pre;" direction="ltr">Integrations</text></g><g transform="translate(764.865234375 184.84765625) rotate(0 73.5 25)"><text x="73.5" y="18" font-family="Virgil, Segoe UI Emoji" font-size="20px" fill="#000000" text-anchor="middle" style="white-space: pre;" direction="ltr">Advance Graph</text><text x="73.5" y="43" font-family="Virgil, Segoe UI Emoji" font-size="20px" fill="#000000" text-anchor="middle" style="white-space: pre;" direction="ltr">Embeddings</text></g><g transform="translate(803.068359375 19.890625) rotate(0 33 12.5)"><text x="0" y="18" font-family="Virgil, Segoe UI Emoji" font-size="20px" fill="#000000" text-anchor="start" style="white-space: pre;" direction="ltr">Plugins</text></g><g stroke-linecap="round" transform="translate(365.455078125 322.73046875) rotate(0 101.900390625 109.333984375)"><path d="M7.86 8.16 C7.86 8.16, 7.86 8.16, 7.86 8.16 M7.86 8.16 C7.86 8.16, 7.86 8.16, 7.86 8.16 M3.66 19.09 C7.5 15.2, 12.07 8.46, 18.1 2.48 M3.66 19.09 C7.79 15.57, 11.08 11.91, 18.1 2.48 M2.75 26.24 C8.82 19.41, 15.95 13.95, 24.4 1.33 M2.75 26.24 C8.14 19.64, 14.76 12.47, 24.4 1.33 M2.48 32.64 C11.28 21.28, 18.83 12.33, 30.7 0.18 M2.48 32.64 C8.06 26.82, 14.18 19.43, 30.7 0.18 M2.88 38.28 C13.48 26.78, 24.29 14.12, 34.37 2.05 M2.88 38.28 C11.52 27.4, 21.34 17.32, 34.37 2.05 M2.62 44.68 C10.19 36.57, 18.64 28.14, 39.36 2.41 M2.62 44.68 C11.09 33.81, 21.05 25.2, 39.36 2.41 M2.36 51.07 C17.76 37.1, 29.56 20.27, 45 2.02 M2.36 51.07 C12.07 39.68, 22.03 29.61, 45 2.02 M2.75 56.72 C21.82 35.63, 39.91 13.24, 49.99 2.38 M2.75 56.72 C13.2 43.38, 25.05 30.9, 49.99 2.38 M2.49 63.11 C13.86 48.12, 27.27 35.54, 55.63 1.98 M2.49 63.11 C21.43 40.5, 41.59 20.22, 55.63 1.98 M2.23 69.51 C22.91 42.23, 49.78 16.44, 60.62 2.34 M2.23 69.51 C13.4 55.7, 25.1 40.65, 60.62 2.34 M2.62 75.16 C22.14 52.13, 39.89 32.92, 66.26 1.95 M2.62 75.16 C25.71 47.22, 50.42 20.11, 66.26 1.95 M2.36 81.55 C28.09 51.14, 54.76 24.51, 71.25 2.31 M2.36 81.55 C19.79 61.12, 39.02 39.99, 71.25 2.31 M2.76 87.2 C20.9 65.41, 37 47.93, 76.89 1.91 M2.76 87.2 C29.04 58.14, 53.56 30.15, 76.89 1.91 M2.49 93.59 C27.58 66.9, 50.67 36.9, 81.88 2.27 M2.49 93.59 C31.55 58.7, 63.15 24.2, 81.88 2.27 M2.23 99.99 C17.71 78.1, 39.26 61.17, 87.52 1.88 M2.23 99.99 C30.07 69.06, 58.65 36.23, 87.52 1.88 M2.63 105.64 C27.67 74.25, 56.31 45.66, 92.51 2.24 M2.63 105.64 C28.11 77.35, 53.6 47.04, 92.51 2.24 M2.37 112.03 C25.32 83.64, 50.12 59, 97.49 2.6 M2.37 112.03 C38.92 67.9, 77.58 25.25, 97.49 2.6 M2.1 118.43 C22.36 93.25, 44.11 69.98, 103.14 2.21 M2.1 118.43 C35.66 79.88, 69.56 41.26, 103.14 2.21 M2.5 124.07 C41.57 76.28, 82.63 32.29, 108.12 2.57 M2.5 124.07 C24.83 96.13, 49.96 70.92, 108.12 2.57 M2.24 130.47 C31.74 93.95, 58.74 61.35, 113.77 2.17 M2.24 130.47 C26.28 102.17, 50.84 73.28, 113.77 2.17 M1.98 136.87 C45.47 85.46, 88.71 37.65, 118.76 2.53 M1.98 136.87 C33.98 100.69, 63.03 65.97, 118.76 2.53 M2.37 142.51 C31.76 108.29, 63.93 71.11, 124.4 2.14 M2.37 142.51 C46.89 93.73, 89.5 44.87, 124.4 2.14 M2.11 148.91 C45.28 99.69, 89.95 49.19, 129.39 2.5 M2.11 148.91 C49.52 93.61, 96.81 39.03, 129.39 2.5 M2.5 154.55 C36.96 116.91, 69.86 79.53, 135.03 2.1 M2.5 154.55 C54.91 96.89, 105.95 36.53, 135.03 2.1 M2.24 160.95 C53.77 104.11, 102.3 44.32, 140.02 2.46 M2.24 160.95 C30.8 125.63, 60.86 91.18, 140.02 2.46 M1.98 167.35 C56.13 104.29, 110.11 40.37, 145.66 2.07 M1.98 167.35 C48.46 114.08, 93.49 59.91, 145.66 2.07 M2.38 172.99 C44.58 127.02, 89.11 76.25, 150.65 2.43 M2.38 172.99 C36.53 134.54, 70.85 94.33, 150.65 2.43 M2.11 179.39 C40.32 135.59, 77.97 93.17, 155.63 2.79 M2.11 179.39 C34.83 140.64, 68.49 103.22, 155.63 2.79 M0.54 187.3 C41.46 140.11, 86.38 90.22, 161.28 2.39 M0.54 187.3 C46.06 134.78, 91.31 83.63, 161.28 2.39 M1.59 192.19 C41.25 143.86, 82.94 97.16, 166.26 2.75 M1.59 192.19 C44.06 143.96, 86.22 97.25, 166.26 2.75 M1.99 197.83 C44.86 149.51, 86.95 98.94, 171.91 2.36 M1.99 197.83 C38.17 160.01, 71.19 119.79, 171.91 2.36 M3.69 201.96 C55.86 143.19, 108.97 82.44, 176.89 2.72 M3.69 201.96 C54.97 144.21, 105.94 86.39, 176.89 2.72 M4.74 206.85 C60.88 143.9, 116.94 78.81, 181.88 3.08 M4.74 206.85 C47.38 158.44, 89.58 109.89, 181.88 3.08 M7.76 209.47 C65.87 142.3, 125.56 75.09, 186.21 4.19 M7.76 209.47 C64.04 145.47, 119.96 81.27, 186.21 4.19 M10.78 212.1 C69.4 145.55, 126.83 79.62, 190.54 5.31 M10.78 212.1 C50.45 166.08, 91.18 119.54, 190.54 5.31 M13.8 214.72 C73.1 148.89, 132.49 79.31, 194.22 7.18 M13.8 214.72 C79.63 139.91, 144.15 64.73, 194.22 7.18 M17.47 216.59 C64.92 166.53, 107.5 114.61, 197.24 9.8 M17.47 216.59 C53.37 172.03, 91.26 128.96, 197.24 9.8 M20.49 219.22 C80.19 147.69, 141.79 78.89, 199.6 13.18 M20.49 219.22 C56.73 174.75, 95.48 131.4, 199.6 13.18 M25.48 219.58 C71.07 170.35, 114.18 118.29, 201.3 17.31 M25.48 219.58 C65.73 173.99, 102.29 130.37, 201.3 17.31 M29.81 220.69 C78.13 165.52, 123.27 112.48, 204.32 19.94 M29.81 220.69 C85.54 158.4, 139.82 95.3, 204.32 19.94 M34.8 221.05 C75.31 178.83, 111.56 135.13, 204.72 25.58 M34.8 221.05 C82.7 166.83, 128.83 112.94, 204.72 25.58 M39.79 221.41 C84.4 169.39, 128.74 118.52, 204.46 31.98 M39.79 221.41 C77.13 178.76, 114.27 136.26, 204.46 31.98 M45.43 221.02 C82.87 179.51, 115.6 141.1, 204.2 38.38 M45.43 221.02 C79.71 180.37, 114.97 140.67, 204.2 38.38 M50.42 221.38 C102.75 162.01, 155.65 100.02, 203.93 44.78 M50.42 221.38 C109.81 152.74, 169.96 85.29, 203.93 44.78 M56.06 220.98 C92.44 177.29, 130.66 135.73, 204.33 50.42 M56.06 220.98 C95.34 173.07, 137.16 128.29, 204.33 50.42 M61.05 221.34 C109.5 164.55, 159.67 109.27, 204.07 56.82 M61.05 221.34 C110.23 163.81, 161.77 104.87, 204.07 56.82 M66.69 220.95 C103 176.83, 141.25 132.67, 204.46 62.46 M66.69 220.95 C101.61 183.86, 136.02 143.13, 204.46 62.46 M71.68 221.31 C122.4 161.23, 175.09 101.59, 204.2 68.86 M71.68 221.31 C121.2 165.13, 168.97 109.03, 204.2 68.86 M77.32 220.91 C102.47 190.59, 128.22 160.25, 203.94 75.26 M77.32 220.91 C124.11 166.67, 171.65 114.05, 203.94 75.26 M82.31 221.27 C109.69 187.15, 141.83 152.45, 204.33 80.9 M82.31 221.27 C127.9 169.99, 172.23 116.47, 204.33 80.9 M87.95 220.88 C124.36 180.6, 158.22 139.21, 204.07 87.3 M87.95 220.88 C116.82 188.53, 145.49 156.73, 204.07 87.3 M92.94 221.24 C132 178.61, 164.84 138.47, 204.47 92.94 M92.94 221.24 C116.14 194.98, 138 167.96, 204.47 92.94 M98.58 220.85 C120.71 195.91, 142.26 170.97, 204.2 99.34 M98.58 220.85 C128.29 185.1, 160.39 150.43, 204.2 99.34 M103.57 221.21 C134.71 187.17, 162.8 152.58, 203.94 105.73 M103.57 221.21 C143.15 175.64, 183.49 129.77, 203.94 105.73 M109.21 220.81 C134.93 194.11, 160.53 162.52, 204.34 111.38 M109.21 220.81 C138.65 187.64, 169.27 152.95, 204.34 111.38 M114.2 221.17 C141.43 191.93, 166.02 161.47, 204.08 117.78 M114.2 221.17 C148.16 181.96, 181.47 141.48, 204.08 117.78 M119.84 220.78 C135.87 202.69, 154.29 181.74, 204.47 123.42 M119.84 220.78 C147.84 189.83, 174.56 159.06, 204.47 123.42 M124.83 221.14 C148.41 193.86, 169.87 171.87, 204.21 129.82 M124.83 221.14 C146.18 195.87, 170.39 168.82, 204.21 129.82 M130.47 220.74 C152.99 191.7, 175.72 168.82, 203.95 136.21 M130.47 220.74 C154.2 194.91, 175.46 168.82, 203.95 136.21 M135.46 221.1 C155.3 197.81, 175.98 174.84, 204.34 141.86 M135.46 221.1 C158.41 194.16, 181.32 165.77, 204.34 141.86 M141.1 220.71 C156.24 204.73, 171.34 187.57, 204.08 148.25 M141.1 220.71 C159.38 199.11, 177.79 177.88, 204.08 148.25 M146.09 221.07 C157.53 205.14, 173.89 191.25, 204.48 153.9 M146.09 221.07 C160.45 204.46, 175.88 186.82, 204.48 153.9 M151.07 221.43 C168.37 201.48, 185.25 180.78, 204.21 160.3 M151.07 221.43 C164.75 206.26, 177.56 191.19, 204.21 160.3 M156.72 221.03 C173.97 197.94, 192.97 178.4, 203.95 166.69 M156.72 221.03 C170.13 206.16, 182.2 190.64, 203.95 166.69 M161.7 221.39 C176.39 204.68, 192.06 186.72, 204.35 172.34 M161.7 221.39 C177.86 203.28, 192.16 186.26, 204.35 172.34 M167.35 221 C179.96 202.41, 195.73 187.21, 204.09 178.73 M167.35 221 C178.49 209.76, 188.6 197.03, 204.09 178.73 M173.65 219.85 C183.76 205.78, 195.07 192.73, 204.48 184.38 M173.65 219.85 C181.41 211.28, 187.93 201.14, 204.48 184.38 M179.29 219.45 C187.49 211.97, 196.29 200.53, 206.19 188.51 M179.29 219.45 C187.82 209.73, 195.5 200.05, 206.19 188.51 M186.24 217.55 C189.18 211.07, 194.75 208.25, 205.27 195.66 M186.24 217.55 C192 212.45, 196.98 205.85, 205.27 195.66" stroke="#40c057" stroke-width="0.5" fill="none"></path><path d="M32 0 M32 0 C78.82 -0.28, 129.32 -0.71, 171.8 0 M32 0 C70.56 -1.47, 109.69 -0.99, 171.8 0 M171.8 0 C195.1 1.71, 205.34 9.11, 203.8 32 M171.8 0 C192.76 0.85, 204.18 9.34, 203.8 32 M203.8 32 C200.82 61.89, 202.4 94.81, 203.8 186.67 M203.8 32 C203.54 90.77, 204.03 151.87, 203.8 186.67 M203.8 186.67 C204.36 208.4, 193.39 219.98, 171.8 218.67 M203.8 186.67 C204.49 210.14, 194.16 218.82, 171.8 218.67 M171.8 218.67 C132.48 220.7, 93.27 217.89, 32 218.67 M171.8 218.67 C134.28 218.08, 94.51 217.73, 32 218.67 M32 218.67 C9.29 219.92, 0.95 206.81, 0 186.67 M32 218.67 C12.14 218.5, 1.33 209.65, 0 186.67 M0 186.67 C0.46 127.28, -0.11 63.86, 0 32 M0 186.67 C-0.7 129.27, -0.32 72.4, 0 32 M0 32 C-1.29 9.45, 11.1 0.88, 32 0 M0 32 C0.49 8.91, 12.2 -1.51, 32 0" stroke="#000000" stroke-width="1" fill="none"></path></g><g stroke-linecap="round" transform="translate(387.033203125 347.6640625) rotate(0 81 17.5)"><path d="M2.33 2.02 C2.33 2.02, 2.33 2.02, 2.33 2.02 M2.33 2.02 C2.33 2.02, 2.33 2.02, 2.33 2.02 M0.76 9.93 C3.93 6.99, 5.26 3.37, 9.28 0.12 M0.76 9.93 C3.66 7.19, 6.47 3.76, 9.28 0.12 M1.15 15.57 C5.12 12.54, 10.38 5.31, 14.27 0.48 M1.15 15.57 C4.31 12.47, 6.93 8.09, 14.27 0.48 M1.54 21.22 C6.3 13.07, 13.43 5.99, 19.91 0.09 M1.54 21.22 C9.3 13.67, 15.44 5.87, 19.91 0.09 M1.28 27.62 C10.36 18.14, 18.25 8.85, 24.9 0.45 M1.28 27.62 C7.69 20.3, 14.88 10.14, 24.9 0.45 M2.99 31.75 C12.85 22.24, 22.39 8.5, 30.54 0.05 M2.99 31.75 C7.64 26.3, 14.53 19.01, 30.54 0.05 M5.35 35.13 C15.56 25.04, 22.87 13.59, 35.53 0.41 M5.35 35.13 C11.1 28.35, 18.2 21.25, 35.53 0.41 M11 34.73 C20.82 23.78, 29.37 11.25, 40.52 0.77 M11 34.73 C18.77 25.4, 27.42 14.61, 40.52 0.77 M15.98 35.09 C24.51 24.91, 35.3 14.87, 46.16 0.38 M15.98 35.09 C23.52 26.51, 33.46 16.85, 46.16 0.38 M21.63 34.7 C32.4 23.56, 44.79 6.57, 51.15 0.74 M21.63 34.7 C32.83 21.44, 42.59 9.72, 51.15 0.74 M26.61 35.06 C33.14 26.02, 43.2 17.06, 56.79 0.34 M26.61 35.06 C36.42 23.95, 46.93 11.95, 56.79 0.34 M31.6 35.42 C38.54 27.54, 49.29 15.27, 61.78 0.7 M31.6 35.42 C38.85 27.78, 45.56 18.25, 61.78 0.7 M37.24 35.02 C46.29 21.72, 59.83 11.84, 67.42 0.31 M37.24 35.02 C43.44 27.54, 50.62 20.23, 67.42 0.31 M42.23 35.38 C53.08 23.55, 60.84 15.13, 72.41 0.67 M42.23 35.38 C53.16 23.31, 64.7 9.37, 72.41 0.67 M47.87 34.99 C57.15 24.57, 71.7 10.67, 78.05 0.27 M47.87 34.99 C55.86 27.56, 61.88 18.55, 78.05 0.27 M52.86 35.35 C58.37 28.72, 66.52 19.26, 83.04 0.63 M52.86 35.35 C60.71 27.83, 66.13 18.15, 83.04 0.63 M58.5 34.96 C66.09 25.17, 77.38 17.62, 88.68 0.24 M58.5 34.96 C67.8 23.94, 78.38 11.94, 88.68 0.24 M63.49 35.32 C73.77 22.07, 86.17 12.22, 93.67 0.6 M63.49 35.32 C70.25 28.32, 76.3 20.49, 93.67 0.6 M69.13 34.92 C77.79 23.18, 90.52 9.83, 98.66 0.96 M69.13 34.92 C78.07 24.49, 89.88 12.18, 98.66 0.96 M74.12 35.28 C83.58 20.39, 96.41 7.27, 104.3 0.56 M74.12 35.28 C84.36 23.29, 94.05 12.85, 104.3 0.56 M79.76 34.89 C87.96 24.29, 99.29 13.1, 109.29 0.92 M79.76 34.89 C87.74 24.28, 96.71 15.21, 109.29 0.92 M84.75 35.25 C93.37 26.5, 99.01 18.88, 114.93 0.53 M84.75 35.25 C91.46 27.93, 98.53 19.44, 114.93 0.53 M89.74 35.61 C96.97 27.8, 102.95 23.18, 119.92 0.89 M89.74 35.61 C98.96 23.61, 109.31 12.55, 119.92 0.89 M95.38 35.21 C103.8 26.65, 112.85 17.17, 125.56 0.5 M95.38 35.21 C103.31 26.67, 109.01 20.02, 125.56 0.5 M100.37 35.57 C113.36 20.95, 123.56 7.8, 130.55 0.86 M100.37 35.57 C111.74 22.39, 123.32 9.15, 130.55 0.86 M106.01 35.18 C117.31 20.38, 128.4 9.53, 136.19 0.46 M106.01 35.18 C115.53 24.21, 123.09 13.66, 136.19 0.46 M111 35.54 C120.56 28.87, 125.44 17.26, 141.18 0.82 M111 35.54 C122.32 22.94, 132.69 10.41, 141.18 0.82 M116.64 35.14 C122.57 27.67, 130.1 17.05, 146.16 1.18 M116.64 35.14 C124.17 25.66, 133.23 16.16, 146.16 1.18 M121.63 35.5 C134.46 25.05, 144.22 10.36, 151.81 0.79 M121.63 35.5 C128.21 27.12, 136.08 19.19, 151.81 0.79 M127.27 35.11 C138.84 21.58, 151.64 7.49, 157.45 0.39 M127.27 35.11 C133.83 28.18, 141.79 18.74, 157.45 0.39 M132.26 35.47 C142.38 26.5, 148.84 11.83, 159.81 3.77 M132.26 35.47 C138.74 28.3, 143.09 22.1, 159.81 3.77 M137.9 35.07 C145.75 28.01, 152.22 17.22, 162.83 6.4 M137.9 35.07 C145.2 27.11, 153.23 18.91, 162.83 6.4 M142.89 35.43 C150.58 27.44, 156.69 19.75, 163.23 12.04 M142.89 35.43 C146.86 30.5, 150.52 25.96, 163.23 12.04 M147.87 35.79 C151.97 31.92, 156.62 25.24, 162.96 18.44 M147.87 35.79 C152.2 32.3, 155.01 28.06, 162.96 18.44 M153.52 35.4 C156.12 32.61, 159.3 28.13, 162.7 24.83 M153.52 35.4 C156.43 31.44, 159.75 28.69, 162.7 24.83" stroke="#40c057" stroke-width="0.5" fill="none"></path><path d="M8.75 0 M8.75 0 C50.86 0.94, 89.69 0.94, 153.25 0 M8.75 0 C52.87 -1.45, 96.6 -1.23, 153.25 0 M153.25 0 C157.32 -0.65, 163.65 4.15, 162 8.75 M153.25 0 C157.78 0.76, 159.91 5.18, 162 8.75 M162 8.75 C162.39 14.22, 162.69 21.75, 162 26.25 M162 8.75 C161.68 15.5, 161.12 21.94, 162 26.25 M162 26.25 C162.8 31.43, 158.29 36.54, 153.25 35 M162 26.25 C161.83 30.9, 158.62 34.12, 153.25 35 M153.25 35 C94.32 34.16, 36.63 37.42, 8.75 35 M153.25 35 C94.93 33.41, 38.34 33.9, 8.75 35 M8.75 35 C4.51 34.72, -1.41 33.84, 0 26.25 M8.75 35 C3.22 33.46, -0.92 32.2, 0 26.25 M0 26.25 C-1.31 19.42, -0.48 17.39, 0 8.75 M0 26.25 C-0.2 20.42, -0.36 15.23, 0 8.75 M0 8.75 C-0.81 1.77, 3.44 -0.57, 8.75 0 M0 8.75 C1.61 2.93, 4.33 -0.85, 8.75 0" stroke="#000000" stroke-width="1" fill="none"></path></g><g stroke-linecap="round" transform="translate(391.099609375 401.53125) rotate(0 81 17.5)"><path d="M2.33 2.02 C2.33 2.02, 2.33 2.02, 2.33 2.02 M2.33 2.02 C2.33 2.02, 2.33 2.02, 2.33 2.02 M0.76 9.93 C2.9 6.78, 4.36 4.93, 9.28 0.12 M0.76 9.93 C3.88 7.14, 6.33 3.23, 9.28 0.12 M1.15 15.57 C8.02 10.77, 10.71 2.7, 14.27 0.48 M1.15 15.57 C5.26 10.76, 8.09 8.03, 14.27 0.48 M1.54 21.22 C6.36 14.46, 12.23 8.33, 19.91 0.09 M1.54 21.22 C8.31 13.91, 14.83 6.67, 19.91 0.09 M1.28 27.62 C9.11 19.27, 17.11 8.89, 24.9 0.45 M1.28 27.62 C9.19 19.02, 14.25 12.23, 24.9 0.45 M2.99 31.75 C12.37 22.91, 17.52 11.48, 30.54 0.05 M2.99 31.75 C13.14 21.87, 21.44 10.99, 30.54 0.05 M5.35 35.13 C15.89 23.02, 25.1 8.17, 35.53 0.41 M5.35 35.13 C14.82 25.11, 23.97 15.25, 35.53 0.41 M11 34.73 C19.3 24.36, 26.05 15.48, 40.52 0.77 M11 34.73 C19.7 24.85, 26.91 16.18, 40.52 0.77 M15.98 35.09 C28.05 22.88, 40.23 8.3, 46.16 0.38 M15.98 35.09 C25.18 26.64, 33.29 17.57, 46.16 0.38 M21.63 34.7 C31.22 26.22, 34.93 19.13, 51.15 0.74 M21.63 34.7 C32.38 20.82, 44.65 7.82, 51.15 0.74 M26.61 35.06 C39.16 21.68, 51.81 8.6, 56.79 0.34 M26.61 35.06 C37.74 23.07, 47.96 11.28, 56.79 0.34 M31.6 35.42 C42.25 26.31, 48.52 14.01, 61.78 0.7 M31.6 35.42 C40.04 25.88, 46.55 18.41, 61.78 0.7 M37.24 35.02 C43.42 28.22, 53.04 16.07, 67.42 0.31 M37.24 35.02 C46.75 24.61, 56.46 13, 67.42 0.31 M42.23 35.38 C48.99 25.82, 59.18 18.79, 72.41 0.67 M42.23 35.38 C50.49 26.96, 56.86 18.52, 72.41 0.67 M47.87 34.99 C57.22 28.82, 63.04 17.45, 78.05 0.27 M47.87 34.99 C58.21 23.52, 66.95 12.06, 78.05 0.27 M52.86 35.35 C64.12 24.11, 72.5 11.51, 83.04 0.63 M52.86 35.35 C64.96 21.13, 74.92 8.91, 83.04 0.63 M58.5 34.96 C67.77 26.39, 79.24 14.17, 88.68 0.24 M58.5 34.96 C68.91 23.86, 78.28 12.18, 88.68 0.24 M63.49 35.32 C70.23 27.96, 80.33 15.34, 93.67 0.6 M63.49 35.32 C76.33 20.96, 88.31 8.2, 93.67 0.6 M69.13 34.92 C76.98 26.97, 83.2 18.05, 98.66 0.96 M69.13 34.92 C78.42 26.6, 85.78 16.78, 98.66 0.96 M74.12 35.28 C83.6 22.28, 94.87 10.37, 104.3 0.56 M74.12 35.28 C82.71 24.67, 92.83 14.76, 104.3 0.56 M79.76 34.89 C90.17 24.35, 100 10.43, 109.29 0.92 M79.76 34.89 C89.13 23.46, 100.07 10.16, 109.29 0.92 M84.75 35.25 C93.98 23.54, 104.31 12.69, 114.93 0.53 M84.75 35.25 C92.86 26.49, 99.83 17.2, 114.93 0.53 M89.74 35.61 C98.04 25.98, 109.49 15.37, 119.92 0.89 M89.74 35.61 C96.79 26.71, 104.77 17.82, 119.92 0.89 M95.38 35.21 C104.63 26.3, 113 15.31, 125.56 0.5 M95.38 35.21 C101.5 26.79, 109.51 20.31, 125.56 0.5 M100.37 35.57 C106.08 27.31, 113.3 20.07, 130.55 0.86 M100.37 35.57 C112.12 22.14, 123.82 10.34, 130.55 0.86 M106.01 35.18 C111.13 26.79, 120.2 19.47, 136.19 0.46 M106.01 35.18 C117.21 20.61, 128.86 7.68, 136.19 0.46 M111 35.54 C119.55 26.91, 123.13 21.03, 141.18 0.82 M111 35.54 C116.76 28.45, 122.62 20.73, 141.18 0.82 M116.64 35.14 C126.29 24.26, 132.8 14.32, 146.16 1.18 M116.64 35.14 C125.6 25.21, 134.51 15.33, 146.16 1.18 M121.63 35.5 C132.24 26.21, 138.6 14.06, 151.81 0.79 M121.63 35.5 C131.24 24.76, 141.27 13.59, 151.81 0.79 M127.27 35.11 C137.98 23.94, 148.1 8.67, 157.45 0.39 M127.27 35.11 C138.42 24.36, 147.05 12.18, 157.45 0.39 M132.26 35.47 C143.91 22.05, 149.89 10.55, 159.81 3.77 M132.26 35.47 C138.15 27.01, 145.06 20.35, 159.81 3.77 M137.9 35.07 C145.19 27.45, 148.76 22.07, 162.83 6.4 M137.9 35.07 C144.15 29.07, 150.18 21.19, 162.83 6.4 M142.89 35.43 C146.67 31.15, 150.74 23.06, 163.23 12.04 M142.89 35.43 C149.22 27.31, 155.91 21.11, 163.23 12.04 M147.87 35.79 C153.36 30.59, 156.04 25.3, 162.96 18.44 M147.87 35.79 C154.09 29.4, 159.56 22.43, 162.96 18.44 M153.52 35.4 C156.57 32.63, 157.94 29.49, 162.7 24.83 M153.52 35.4 C155.11 33.16, 157.9 30.59, 162.7 24.83" stroke="#40c057" stroke-width="0.5" fill="none"></path><path d="M8.75 0 M8.75 0 C40.9 -2.39, 71.81 -0.48, 153.25 0 M8.75 0 C50.6 -0.07, 93.4 -1.68, 153.25 0 M153.25 0 C158.43 1.65, 163.23 1.79, 162 8.75 M153.25 0 C159.84 -2.09, 164.27 4.22, 162 8.75 M162 8.75 C161.11 14.46, 162.4 19.7, 162 26.25 M162 8.75 C162.48 12.21, 162.72 17.56, 162 26.25 M162 26.25 C161.35 31.29, 160.62 34.85, 153.25 35 M162 26.25 C160.82 31.62, 158.2 37.24, 153.25 35 M153.25 35 C103.09 32.11, 57.87 35.88, 8.75 35 M153.25 35 C122.88 34.23, 93.28 34.74, 8.75 35 M8.75 35 C2.63 33.59, 1.76 32.34, 0 26.25 M8.75 35 C1.38 34.08, 0.12 32.08, 0 26.25 M0 26.25 C-1.52 21.14, 1.69 17.79, 0 8.75 M0 26.25 C0.06 20.5, 0.78 15.08, 0 8.75 M0 8.75 C-1.14 3.44, 2.34 1.4, 8.75 0 M0 8.75 C0.01 4.33, 2.06 0.92, 8.75 0" stroke="#000000" stroke-width="1" fill="none"></path></g><g stroke-linecap="round" transform="translate(389.681640625 452.85546875) rotate(0 81 42.5)"><path d="M3.19 8.07 C3.19 8.07, 3.19 8.07, 3.19 8.07 M3.19 8.07 C3.19 8.07, 3.19 8.07, 3.19 8.07 M0.96 16.73 C2.94 12.71, 6.43 11.04, 10.8 5.41 M0.96 16.73 C5.18 12.34, 8.1 9.22, 10.8 5.41 M0.7 23.13 C7.28 15.95, 10.59 9.69, 17.75 3.51 M0.7 23.13 C4.34 17.92, 10.05 12.91, 17.75 3.51 M1.09 28.77 C8.38 19.25, 16.26 14.33, 24.05 2.36 M1.09 28.77 C8.02 21.17, 15.1 13.15, 24.05 2.36 M0.83 35.17 C9.95 25.37, 17.09 16.27, 29.04 2.72 M0.83 35.17 C8.4 24.61, 17.71 16.2, 29.04 2.72 M1.22 40.81 C12.23 26.92, 20.66 16.55, 34.68 2.32 M1.22 40.81 C10.33 30.95, 18.33 21.63, 34.68 2.32 M0.96 47.21 C16.21 28.31, 28.85 12.52, 39.67 2.68 M0.96 47.21 C12.75 34.64, 24.58 20.24, 39.67 2.68 M0.7 53.61 C14.6 35.2, 30.02 19.1, 45.31 2.29 M0.7 53.61 C11.21 40.38, 22.76 29.5, 45.31 2.29 M1.1 59.25 C15.03 45.49, 26.53 28.94, 50.3 2.65 M1.1 59.25 C16.1 43.79, 30.24 26.4, 50.3 2.65 M0.83 65.65 C12.44 50.18, 25.28 40.7, 55.94 2.26 M0.83 65.65 C13.76 50.14, 27.79 35.39, 55.94 2.26 M1.89 70.54 C23.8 47.33, 45.73 22.28, 60.93 2.62 M1.89 70.54 C17.9 52.36, 33.96 33.24, 60.93 2.62 M3.59 74.67 C25.02 50.28, 42.95 27.16, 66.57 2.22 M3.59 74.67 C16.4 58.26, 31.17 42.83, 66.57 2.22 M5.3 78.81 C29.29 54.99, 47.57 29.64, 71.56 2.58 M5.3 78.81 C29.43 51.98, 52.31 24.54, 71.56 2.58 M8.32 81.43 C30.21 57.05, 54.94 28.09, 77.2 2.19 M8.32 81.43 C23.99 62.8, 39.52 45.6, 77.2 2.19 M11.34 84.06 C28.73 66.82, 40.46 49.63, 82.19 2.55 M11.34 84.06 C29.25 61.75, 47.63 40.44, 82.19 2.55 M15.67 85.17 C31.89 66.22, 46.43 50.12, 87.83 2.15 M15.67 85.17 C36.43 58.24, 59.66 32.98, 87.83 2.15 M20 86.29 C40.01 67.99, 56.16 46.44, 92.82 2.51 M20 86.29 C35.62 68.4, 50.47 51.78, 92.82 2.51 M24.33 87.4 C43.81 68.32, 57.98 49.57, 98.46 2.12 M24.33 87.4 C44.33 63.77, 66.06 38.72, 98.46 2.12 M29.32 87.76 C50.36 63.68, 69.95 42.31, 103.45 2.48 M29.32 87.76 C46.87 68.84, 62.4 51.81, 103.45 2.48 M34.96 87.37 C61.16 56.72, 87.98 28.53, 109.09 2.08 M34.96 87.37 C54.86 65.08, 75.53 41.57, 109.09 2.08 M39.95 87.73 C64.53 60.76, 85.51 36.36, 114.08 2.44 M39.95 87.73 C69.54 54.69, 97.24 22.01, 114.08 2.44 M45.59 87.33 C59.62 70.56, 74.78 50.7, 119.72 2.05 M45.59 87.33 C74.84 53.5, 103.35 19.46, 119.72 2.05 M50.58 87.69 C66.02 72.25, 80.77 52.53, 124.71 2.41 M50.58 87.69 C72.3 63.23, 93.62 38.92, 124.71 2.41 M56.22 87.3 C84.05 56.98, 109.75 22.1, 129.7 2.77 M56.22 87.3 C76.62 63.7, 99.36 37.69, 129.7 2.77 M61.21 87.66 C89.02 54.37, 118.29 25.4, 135.34 2.37 M61.21 87.66 C83.99 61.61, 108.3 33.48, 135.34 2.37 M66.85 87.26 C88.2 63.3, 110.55 39.61, 141.64 1.22 M66.85 87.26 C93.61 54.69, 122.35 21.5, 141.64 1.22 M71.84 87.62 C89.11 64.07, 109.64 41.86, 145.97 2.34 M71.84 87.62 C95.32 59.99, 118.38 33.31, 145.97 2.34 M77.48 87.23 C99.9 59.17, 122.93 34.81, 150.96 2.7 M77.48 87.23 C93.62 69.38, 109.44 51.87, 150.96 2.7 M82.47 87.59 C100.91 65.39, 117.02 45.22, 155.29 3.81 M82.47 87.59 C99.63 68.75, 116.21 51.06, 155.29 3.81 M88.11 87.19 C108.27 64.58, 124.38 44.56, 157.65 7.19 M88.11 87.19 C109.99 61.99, 130.33 39.16, 157.65 7.19 M93.1 87.55 C117.37 54.42, 143.82 24.69, 160.67 9.82 M93.1 87.55 C118.13 57.59, 145.25 26.6, 160.67 9.82 M98.08 87.91 C117.4 63.54, 138.94 38.87, 162.38 13.95 M98.08 87.91 C119.28 64.67, 138.62 40.43, 162.38 13.95 M103.73 87.52 C121.67 66.58, 136.12 48.15, 164.08 18.09 M103.73 87.52 C116.93 71.83, 131.92 55.15, 164.08 18.09 M108.71 87.88 C124.31 69.17, 139.68 52.05, 163.82 24.48 M108.71 87.88 C123.52 70.46, 138.23 52.87, 163.82 24.48 M114.36 87.48 C132.28 65.96, 149.63 45.98, 164.22 30.13 M114.36 87.48 C125.74 75.4, 136.52 61.55, 164.22 30.13 M119.34 87.84 C131.64 72.31, 147.9 54.43, 163.96 36.52 M119.34 87.84 C135.39 69.71, 149.39 51.95, 163.96 36.52 M124.99 87.45 C140.43 68.52, 156.81 54.15, 164.35 42.17 M124.99 87.45 C136.09 74.84, 148.07 62.04, 164.35 42.17 M129.97 87.81 C139.57 76.65, 148.35 69.73, 164.09 48.56 M129.97 87.81 C139.17 76.55, 148.16 66.19, 164.09 48.56 M135.62 87.42 C145.45 72.38, 156.65 62.45, 164.48 54.21 M135.62 87.42 C146.7 74.16, 159.22 61.42, 164.48 54.21 M141.92 86.27 C152.18 76.94, 157.55 66.14, 164.22 60.61 M141.92 86.27 C148.4 77.73, 154.63 70.38, 164.22 60.61 M148.87 84.36 C155.2 76.79, 161.37 69.32, 164.62 66.25 M148.87 84.36 C155.37 77.08, 161.96 70.28, 164.62 66.25" stroke="#40c057" stroke-width="0.5" fill="none"></path><path d="M21.25 0 M21.25 0 C64.34 -2.07, 106.24 1.48, 140.75 0 M21.25 0 C56.21 -1.94, 90.94 -0.87, 140.75 0 M140.75 0 C156.3 -1.13, 160.71 8.12, 162 21.25 M140.75 0 C153.13 2.1, 161.26 8.16, 162 21.25 M162 21.25 C163.06 32.22, 160.87 41.89, 162 63.75 M162 21.25 C162.93 34.44, 162.01 48.21, 162 63.75 M162 63.75 C160.07 78.98, 154.12 84.04, 140.75 85 M162 63.75 C164.11 78.64, 155.4 84.57, 140.75 85 M140.75 85 C96.54 85.91, 50.02 82.74, 21.25 85 M140.75 85 C94.82 84.72, 48.12 85.12, 21.25 85 M21.25 85 C6.55 86.17, 1.05 78.68, 0 63.75 M21.25 85 C6.63 83.26, 0.5 79.21, 0 63.75 M0 63.75 C-1.39 53.63, -1.24 44.84, 0 21.25 M0 63.75 C-0.73 55.09, 1.21 46.44, 0 21.25 M0 21.25 C-1.68 8.94, 8.37 -0.13, 21.25 0 M0 21.25 C-0.59 6.74, 7.29 -0.01, 21.25 0" stroke="#000000" stroke-width="1" fill="none"></path></g><g transform="translate(402.533203125 352.6640625) rotate(0 65.5 12.5)"><text x="65.5" y="18" font-family="Virgil, Segoe UI Emoji" font-size="20px" fill="#000000" text-anchor="middle" style="white-space: pre;" direction="ltr">Online Search</text></g><g transform="translate(402.599609375 406.53125) rotate(0 69.5 12.5)"><text x="69.5" y="18" font-family="Virgil, Segoe UI Emoji" font-size="20px" fill="#000000" text-anchor="middle" style="white-space: pre;" direction="ltr">Local Search </text></g><g transform="translate(418.681640625 457.85546875) rotate(0 52 37.5)"><text x="52" y="18" font-family="Virgil, Segoe UI Emoji" font-size="20px" fill="#000000" text-anchor="middle" style="white-space: pre;" direction="ltr">Local </text><text x="52" y="43" font-family="Virgil, Segoe UI Emoji" font-size="20px" fill="#000000" text-anchor="middle" style="white-space: pre;" direction="ltr">Knowledge </text><text x="52" y="68" font-family="Virgil, Segoe UI Emoji" font-size="20px" fill="#000000" text-anchor="middle" style="white-space: pre;" direction="ltr">Graph</text></g><g transform="translate(383.654296875 289.28125) rotate(0 98 12.5)"><text x="0" y="18" font-family="Virgil, Segoe UI Emoji" font-size="20px" fill="#000000" text-anchor="start" style="white-space: pre;" direction="ltr">Terraphim Desktop </text></g><g stroke-linecap="round"><g transform="translate(179.828125 99.78125) rotate(0 37.34375 19.162109375)"><path d="M0 0 C12.45 6.39, 62.24 31.94, 74.69 38.32 M0 0 C12.45 6.39, 62.24 31.94, 74.69 38.32" stroke="#000000" stroke-width="1" fill="none"></path></g><g transform="translate(179.828125 99.78125) rotate(0 37.34375 19.162109375)"><path d="M44.92 34.58 C55.3 35.89, 65.69 37.19, 74.69 38.32 M44.92 34.58 C54.48 35.78, 64.04 36.99, 74.69 38.32" stroke="#000000" stroke-width="1" fill="none"></path></g><g transform="translate(179.828125 99.78125) rotate(0 37.34375 19.162109375)"><path d="M54.29 16.33 C61.4 24, 68.52 31.67, 74.69 38.32 M54.29 16.33 C60.84 23.39, 67.39 30.46, 74.69 38.32" stroke="#000000" stroke-width="1" fill="none"></path></g></g><mask></mask><g stroke-linecap="round"><g transform="translate(181.3359375 156.40234375) rotate(0 36.634765625 -2.271484375)"><path d="M0 0 C12.21 -0.76, 61.06 -3.79, 73.27 -4.54 M0 0 C12.21 -0.76, 61.06 -3.79, 73.27 -4.54" stroke="#000000" stroke-width="1" fill="none"></path></g><g transform="translate(181.3359375 156.40234375) rotate(0 36.634765625 -2.271484375)"><path d="M45.77 7.44 C55.14 3.36, 64.51 -0.73, 73.27 -4.54 M45.77 7.44 C55.36 3.26, 64.96 -0.92, 73.27 -4.54" stroke="#000000" stroke-width="1" fill="none"></path></g><g transform="translate(181.3359375 156.40234375) rotate(0 36.634765625 -2.271484375)"><path d="M44.5 -13.04 C54.3 -10.14, 64.11 -7.25, 73.27 -4.54 M44.5 -13.04 C54.54 -10.07, 64.58 -7.11, 73.27 -4.54" stroke="#000000" stroke-width="1" fill="none"></path></g></g><mask></mask><g stroke-linecap="round"><g transform="translate(181.44921875 199.6875) rotate(0 34.521484375 -16.533203125)"><path d="M0 0 C11.51 -5.51, 57.54 -27.56, 69.04 -33.07 M0 0 C11.51 -5.51, 57.54 -27.56, 69.04 -33.07" stroke="#000000" stroke-width="1" fill="none"></path></g><g transform="translate(181.44921875 199.6875) rotate(0 34.521484375 -16.533203125)"><path d="M48.05 -11.64 C53.81 -17.52, 59.57 -23.4, 69.04 -33.07 M48.05 -11.64 C53.7 -17.4, 59.34 -23.17, 69.04 -33.07" stroke="#000000" stroke-width="1" fill="none"></path></g><g transform="translate(181.44921875 199.6875) rotate(0 34.521484375 -16.533203125)"><path d="M39.19 -30.14 C47.38 -30.95, 55.57 -31.75, 69.04 -33.07 M39.19 -30.14 C47.22 -30.93, 55.25 -31.72, 69.04 -33.07" stroke="#000000" stroke-width="1" fill="none"></path></g></g><mask></mask><g stroke-linecap="round"><g transform="translate(754.5 93.20703125) rotate(0 -30.51171875 17.158203125)"><path d="M0 0 C-10.17 5.72, -50.85 28.6, -61.02 34.32 M0 0 C-10.17 5.72, -50.85 28.6, -61.02 34.32" stroke="#000000" stroke-width="1" fill="none"></path></g><g transform="translate(754.5 93.20703125) rotate(0 -30.51171875 17.158203125)"><path d="M-41.48 11.55 C-47.44 18.5, -53.4 25.44, -61.02 34.32 M-41.48 11.55 C-47.41 18.46, -53.33 25.36, -61.02 34.32" stroke="#000000" stroke-width="1" fill="none"></path></g><g transform="translate(754.5 93.20703125) rotate(0 -30.51171875 17.158203125)"><path d="M-31.42 29.44 C-40.45 30.93, -49.48 32.42, -61.02 34.32 M-31.42 29.44 C-40.4 30.92, -49.37 32.4, -61.02 34.32" stroke="#000000" stroke-width="1" fill="none"></path></g></g><mask></mask><g stroke-linecap="round"><g transform="translate(757.17578125 205.3046875) rotate(0 -30.921875 -27.796875)"><path d="M0 0 C-10.31 -9.27, -51.54 -46.33, -61.84 -55.59 M0 0 C-10.31 -9.27, -51.54 -46.33, -61.84 -55.59" stroke="#000000" stroke-width="1" fill="none"></path></g><g transform="translate(757.17578125 205.3046875) rotate(0 -30.921875 -27.796875)"><path d="M-34.02 -44.38 C-41.17 -47.26, -48.31 -50.14, -61.84 -55.59 M-34.02 -44.38 C-44.42 -48.57, -54.83 -52.77, -61.84 -55.59" stroke="#000000" stroke-width="1" fill="none"></path></g><g transform="translate(757.17578125 205.3046875) rotate(0 -30.921875 -27.796875)"><path d="M-47.74 -29.12 C-51.36 -35.92, -54.98 -42.72, -61.84 -55.59 M-47.74 -29.12 C-53.01 -39.02, -58.29 -48.92, -61.84 -55.59" stroke="#000000" stroke-width="1" fill="none"></path></g></g><mask></mask><g stroke-linecap="round"><g transform="translate(466.734375 345.140625) rotate(0 0.15625 -52.462890625)"><path d="M0 0 C0.05 -17.49, 0.26 -87.44, 0.31 -104.93 M0 0 C0.05 -17.49, 0.26 -87.44, 0.31 -104.93" stroke="#000000" stroke-width="1" fill="none"></path></g><g transform="translate(466.734375 345.140625) rotate(0 0.15625 -52.462890625)"><path d="M-10.18 -28.22 C-6.54 -18.13, -2.9 -8.05, 0 0 M-10.18 -28.22 C-6.15 -17.05, -2.12 -5.88, 0 0" stroke="#000000" stroke-width="1" fill="none"></path></g><g transform="translate(466.734375 345.140625) rotate(0 0.15625 -52.462890625)"><path d="M10.34 -28.16 C6.65 -18.1, 2.95 -8.03, 0 0 M10.34 -28.16 C6.25 -17.01, 2.15 -5.86, 0 0" stroke="#000000" stroke-width="1" fill="none"></path></g><g transform="translate(466.734375 345.140625) rotate(0 0.15625 -52.462890625)"><path d="M10.49 -76.7 C6.85 -86.79, 3.21 -96.88, 0.31 -104.93 M10.49 -76.7 C6.46 -87.88, 2.43 -99.05, 0.31 -104.93" stroke="#000000" stroke-width="1" fill="none"></path></g><g transform="translate(466.734375 345.140625) rotate(0 0.15625 -52.462890625)"><path d="M-10.03 -76.77 C-6.33 -86.83, -2.64 -96.89, 0.31 -104.93 M-10.03 -76.77 C-5.94 -87.91, -1.84 -99.06, 0.31 -104.93" stroke="#000000" stroke-width="1" fill="none"></path></g></g><mask></mask></svg>