<?xml version="1.0" encoding="UTF-8" standalone="no"?>
<!DOCTYPE svg PUBLIC "-//W3C//DTD SVG 1.1//EN"
 "http://www.w3.org/Graphics/SVG/1.1/DTD/svg11.dtd">
<!-- Generated by graphviz version 15.0.0 (20260523.1842)
 -->
<!-- Pages: 1 -->
<svg width="1986pt" height="692pt"
 viewBox="0.00 0.00 1986.00 692.00" xmlns="http://www.w3.org/2000/svg" xmlns:xlink="http://www.w3.org/1999/xlink">
<g id="graph0" class="graph" transform="scale(1 1) rotate(0) translate(4 688)">
<polygon fill="white" stroke="none" points="-4,4 -4,-688 1982.12,-688 1982.12,4 -4,4"/>
<!-- 0 -->
<g id="node1" class="node">
<title>0</title>
<polygon fill="none" stroke="black" points="746.12,-108 652.88,-108 652.88,-72 746.12,-72 746.12,-108"/>
<text xml:space="preserve" text-anchor="middle" x="699.5" y="-84.95" font-family="Times,serif" font-size="14.00">haystack_core</text>
</g>
<!-- 1 -->
<g id="node2" class="node">
<title>1</title>
<polygon fill="none" stroke="black" points="1002.75,-36 898.25,-36 898.25,0 1002.75,0 1002.75,-36"/>
<text xml:space="preserve" text-anchor="middle" x="950.5" y="-12.95" font-family="Times,serif" font-size="14.00">terraphim_types</text>
</g>
<!-- 0&#45;&gt;1 -->
<g id="edge1" class="edge">
<title>0&#45;&gt;1</title>
<path fill="none" stroke="black" d="M746.42,-75.92C786.18,-64.83 843.56,-48.82 887.36,-36.61"/>
<polygon fill="black" stroke="black" points="888.03,-40.06 896.72,-34 886.15,-33.31 888.03,-40.06"/>
</g>
<!-- 2 -->
<g id="node3" class="node">
<title>2</title>
<polygon fill="none" stroke="black" points="632.25,-180 518.75,-180 518.75,-144 632.25,-144 632.25,-180"/>
<text xml:space="preserve" text-anchor="middle" x="575.5" y="-156.95" font-family="Times,serif" font-size="14.00">grepapp_haystack</text>
</g>
<!-- 2&#45;&gt;0 -->
<g id="edge2" class="edge">
<title>2&#45;&gt;0</title>
<path fill="none" stroke="black" d="M606.47,-143.52C622.42,-134.51 642.06,-123.42 659.18,-113.76"/>
<polygon fill="black" stroke="black" points="660.62,-116.97 667.61,-109 657.18,-110.87 660.62,-116.97"/>
</g>
<!-- 3 -->
<g id="node4" class="node">
<title>3</title>
<polygon fill="none" stroke="black" points="748.38,-180 650.62,-180 650.62,-144 748.38,-144 748.38,-180"/>
<text xml:space="preserve" text-anchor="middle" x="699.5" y="-156.95" font-family="Times,serif" font-size="14.00">haystack_jmap</text>
</g>
<!-- 3&#45;&gt;0 -->
<g id="edge3" class="edge">
<title>3&#45;&gt;0</title>
<path fill="none" stroke="black" d="M699.5,-143.7C699.5,-136.41 699.5,-127.73 699.5,-119.54"/>
<polygon fill="black" stroke="black" points="703,-119.62 699.5,-109.62 696,-119.62 703,-119.62"/>
</g>
<!-- 4 -->
<g id="node5" class="node">
<title>4</title>
<polygon fill="none" stroke="black" points="1466.38,-108 1296.62,-108 1296.62,-72 1466.38,-72 1466.38,-108"/>
<text xml:space="preserve" text-anchor="middle" x="1381.5" y="-84.95" font-family="Times,serif" font-size="14.00">terraphim&#45;markdown&#45;parser</text>
</g>
<!-- 4&#45;&gt;1 -->
<g id="edge4" class="edge">
<title>4&#45;&gt;1</title>
<path fill="none" stroke="black" d="M1296.35,-75.17C1213.39,-61.7 1089.16,-41.52 1014.36,-29.37"/>
<polygon fill="black" stroke="black" points="1015.17,-25.96 1004.73,-27.81 1014.04,-32.87 1015.17,-25.96"/>
</g>
<!-- 5 -->
<g id="node6" class="node">
<title>5</title>
<polygon fill="none" stroke="black" points="1825,-396 1662,-396 1662,-360 1825,-360 1825,-396"/>
<text xml:space="preserve" text-anchor="middle" x="1743.5" y="-372.95" font-family="Times,serif" font-size="14.00">terraphim&#45;session&#45;analyzer</text>
</g>
<!-- 6 -->
<g id="node7" class="node">
<title>6</title>
<polygon fill="none" stroke="black" points="1444.62,-180 1318.38,-180 1318.38,-144 1444.62,-144 1444.62,-180"/>
<text xml:space="preserve" text-anchor="middle" x="1381.5" y="-156.95" font-family="Times,serif" font-size="14.00">terraphim_automata</text>
</g>
<!-- 6&#45;&gt;4 -->
<g id="edge5" class="edge">
<title>6&#45;&gt;4</title>
<path fill="none" stroke="black" d="M1381.5,-143.7C1381.5,-136.41 1381.5,-127.73 1381.5,-119.54"/>
<polygon fill="black" stroke="black" points="1385,-119.62 1381.5,-109.62 1378,-119.62 1385,-119.62"/>
</g>
<!-- 7 -->
<g id="node8" class="node">
<title>7</title>
<polygon fill="none" stroke="black" points="952.75,-324 842.25,-324 842.25,-288 952.75,-288 952.75,-324"/>
<text xml:space="preserve" text-anchor="middle" x="897.5" y="-300.95" font-family="Times,serif" font-size="14.00">terraphim_config</text>
</g>
<!-- 8 -->
<g id="node9" class="node">
<title>8</title>
<polygon fill="none" stroke="black" points="878.5,-252 742.5,-252 742.5,-216 878.5,-216 878.5,-252"/>
<text xml:space="preserve" text-anchor="middle" x="810.5" y="-228.95" font-family="Times,serif" font-size="14.00">terraphim_persistence</text>
</g>
<!-- 7&#45;&gt;8 -->
<g id="edge6" class="edge">
<title>7&#45;&gt;8</title>
<path fill="none" stroke="black" d="M875.99,-287.7C865.43,-279.2 852.52,-268.81 840.97,-259.51"/>
<polygon fill="black" stroke="black" points="843.22,-256.84 833.24,-253.3 838.84,-262.29 843.22,-256.84"/>
</g>
<!-- 16 -->
<g id="node17" class="node">
<title>16</title>
<polygon fill="none" stroke="black" points="721.38,-252 593.62,-252 593.62,-216 721.38,-216 721.38,-252"/>
<text xml:space="preserve" text-anchor="middle" x="657.5" y="-228.95" font-family="Times,serif" font-size="14.00">terraphim_rolegraph</text>
</g>
<!-- 7&#45;&gt;16 -->
<g id="edge7" class="edge">
<title>7&#45;&gt;16</title>
<path fill="none" stroke="black" d="M841.84,-288.76C808.08,-278.92 764.68,-266.26 728.47,-255.7"/>
<polygon fill="black" stroke="black" points="729.51,-252.36 718.93,-252.92 727.55,-259.08 729.51,-252.36"/>
</g>
<!-- 8&#45;&gt;1 -->
<g id="edge9" class="edge">
<title>8&#45;&gt;1</title>
<path fill="none" stroke="black" d="M801.79,-215.76C793.69,-197.19 784.41,-167.18 795.5,-144 817.72,-97.53 866.58,-62.81 903.54,-41.91"/>
<polygon fill="black" stroke="black" points="905.21,-44.98 912.29,-37.11 901.84,-38.85 905.21,-44.98"/>
</g>
<!-- 9 -->
<g id="node10" class="node">
<title>9</title>
<polygon fill="none" stroke="black" points="922.12,-180 804.88,-180 804.88,-144 922.12,-144 922.12,-180"/>
<text xml:space="preserve" text-anchor="middle" x="863.5" y="-156.95" font-family="Times,serif" font-size="14.00">terraphim_settings</text>
</g>
<!-- 8&#45;&gt;9 -->
<g id="edge8" class="edge">
<title>8&#45;&gt;9</title>
<path fill="none" stroke="black" d="M823.6,-215.7C829.63,-207.73 836.92,-198.1 843.61,-189.26"/>
<polygon fill="black" stroke="black" points="846.39,-191.4 849.64,-181.31 840.81,-187.17 846.39,-191.4"/>
</g>
<!-- 10 -->
<g id="node11" class="node">
<title>10</title>
<polygon fill="none" stroke="black" points="898.88,-684 732.12,-684 732.12,-648 898.88,-648 898.88,-684"/>
<text xml:space="preserve" text-anchor="middle" x="815.5" y="-660.95" font-family="Times,serif" font-size="14.00">terraphim_onepassword_cli</text>
</g>
<!-- 11 -->
<g id="node12" class="node">
<title>11</title>
<polygon fill="none" stroke="black" points="720.12,-540 578.88,-540 578.88,-504 720.12,-504 720.12,-540"/>
<text xml:space="preserve" text-anchor="middle" x="649.5" y="-516.95" font-family="Times,serif" font-size="14.00">terraphim_multi_agent</text>
</g>
<!-- 12 -->
<g id="node13" class="node">
<title>12</title>
<polygon fill="none" stroke="black" points="163,-324 0,-324 0,-288 163,-288 163,-324"/>
<text xml:space="preserve" text-anchor="middle" x="81.5" y="-300.95" font-family="Times,serif" font-size="14.00">terraphim_agent_evolution</text>
</g>
<!-- 11&#45;&gt;12 -->
<g id="edge10" class="edge">
<title>11&#45;&gt;12</title>
<path fill="none" stroke="black" d="M578.48,-512.93C458.14,-499.17 226.35,-472.23 218.5,-468 160.91,-436.98 117.1,-371.11 95.8,-333.95"/>
<polygon fill="black" stroke="black" points="99.07,-332.63 91.13,-325.61 92.96,-336.04 99.07,-332.63"/>
</g>
<!-- 13 -->
<g id="node14" class="node">
<title>13</title>
<polygon fill="none" stroke="black" points="381.12,-468 227.88,-468 227.88,-432 381.12,-432 381.12,-468"/>
<text xml:space="preserve" text-anchor="middle" x="304.5" y="-444.95" font-family="Times,serif" font-size="14.00">terraphim_agent_registry</text>
</g>
<!-- 11&#45;&gt;13 -->
<g id="edge11" class="edge">
<title>11&#45;&gt;13</title>
<path fill="none" stroke="black" d="M578.43,-506.58C524.51,-495.64 450.07,-480.54 392.4,-468.83"/>
<polygon fill="black" stroke="black" points="393.45,-465.48 382.95,-466.92 392.06,-472.34 393.45,-465.48"/>
</g>
<!-- 17 -->
<g id="node18" class="node">
<title>17</title>
<polygon fill="none" stroke="black" points="1065.62,-468 951.38,-468 951.38,-432 1065.62,-432 1065.62,-468"/>
<text xml:space="preserve" text-anchor="middle" x="1008.5" y="-444.95" font-family="Times,serif" font-size="14.00">terraphim_service</text>
</g>
<!-- 11&#45;&gt;17 -->
<g id="edge12" class="edge">
<title>11&#45;&gt;17</title>
<path fill="none" stroke="black" d="M720.61,-509.37C777.15,-499.83 858.48,-485.42 940.07,-468"/>
<polygon fill="black" stroke="black" points="940.54,-471.48 949.58,-465.96 939.06,-464.64 940.54,-471.48"/>
</g>
<!-- 22 -->
<g id="node23" class="node">
<title>22</title>
<polygon fill="none" stroke="black" points="780.88,-468 674.12,-468 674.12,-432 780.88,-432 780.88,-468"/>
<text xml:space="preserve" text-anchor="middle" x="727.5" y="-444.95" font-family="Times,serif" font-size="14.00">terraphim_usage</text>
</g>
<!-- 11&#45;&gt;22 -->
<g id="edge13" class="edge">
<title>11&#45;&gt;22</title>
<path fill="none" stroke="black" d="M668.78,-503.7C678.16,-495.28 689.59,-485.02 699.88,-475.79"/>
<polygon fill="black" stroke="black" points="701.94,-478.64 707.04,-469.36 697.26,-473.43 701.94,-478.64"/>
</g>
<!-- 12&#45;&gt;8 -->
<g id="edge14" class="edge">
<title>12&#45;&gt;8</title>
<path fill="none" stroke="black" d="M163.36,-299.63C312.56,-289.62 623.26,-267.71 730.5,-252 730.62,-251.98 730.74,-251.97 730.86,-251.95"/>
<polygon fill="black" stroke="black" points="731.28,-255.43 740.59,-250.38 730.16,-248.51 731.28,-255.43"/>
</g>
<!-- 14 -->
<g id="node15" class="node">
<title>14</title>
<polygon fill="none" stroke="black" points="389.38,-396 219.62,-396 219.62,-360 389.38,-360 389.38,-396"/>
<text xml:space="preserve" text-anchor="middle" x="304.5" y="-372.95" font-family="Times,serif" font-size="14.00">terraphim_agent_messaging</text>
</g>
<!-- 13&#45;&gt;14 -->
<g id="edge15" class="edge">
<title>13&#45;&gt;14</title>
<path fill="none" stroke="black" d="M304.5,-431.7C304.5,-424.41 304.5,-415.73 304.5,-407.54"/>
<polygon fill="black" stroke="black" points="308,-407.62 304.5,-397.62 301,-407.62 308,-407.62"/>
</g>
<!-- 13&#45;&gt;16 -->
<g id="edge16" class="edge">
<title>13&#45;&gt;16</title>
<path fill="none" stroke="black" d="M252.36,-431.72C236.03,-423.57 219.86,-412.01 210.5,-396 202.43,-382.18 201.94,-373.52 210.5,-360 250.27,-297.15 465.12,-259.94 581.87,-244.08"/>
<polygon fill="black" stroke="black" points="582.25,-247.56 591.69,-242.77 581.32,-240.62 582.25,-247.56"/>
</g>
<!-- 15 -->
<g id="node16" class="node">
<title>15</title>
<polygon fill="none" stroke="black" points="539.62,-324 371.38,-324 371.38,-288 539.62,-288 539.62,-324"/>
<text xml:space="preserve" text-anchor="middle" x="455.5" y="-300.95" font-family="Times,serif" font-size="14.00">terraphim_agent_supervisor</text>
</g>
<!-- 14&#45;&gt;15 -->
<g id="edge17" class="edge">
<title>14&#45;&gt;15</title>
<path fill="none" stroke="black" d="M342.21,-359.52C362.02,-350.34 386.49,-338.99 407.62,-329.2"/>
<polygon fill="black" stroke="black" points="409.03,-332.4 416.63,-325.02 406.09,-326.05 409.03,-332.4"/>
</g>
<!-- 15&#45;&gt;8 -->
<g id="edge18" class="edge">
<title>15&#45;&gt;8</title>
<path fill="none" stroke="black" d="M539.83,-289.18C594.29,-278.85 666.64,-264.94 730.5,-252 730.62,-251.98 730.73,-251.95 730.85,-251.93"/>
<polygon fill="black" stroke="black" points="731.42,-255.38 740.52,-249.95 730.02,-248.53 731.42,-255.38"/>
</g>
<!-- 16&#45;&gt;6 -->
<g id="edge19" class="edge">
<title>16&#45;&gt;6</title>
<path fill="none" stroke="black" d="M721.65,-217.99C725.65,-217.26 729.62,-216.59 733.5,-216 939.71,-184.66 1185.86,-170.95 1306.84,-165.75"/>
<polygon fill="black" stroke="black" points="1306.8,-169.25 1316.64,-165.33 1306.5,-162.26 1306.8,-169.25"/>
</g>
<!-- 18 -->
<g id="node19" class="node">
<title>18</title>
<polygon fill="none" stroke="black" points="982.75,-396 842.25,-396 842.25,-360 982.75,-360 982.75,-396"/>
<text xml:space="preserve" text-anchor="middle" x="912.5" y="-372.95" font-family="Times,serif" font-size="14.00">terraphim_middleware</text>
</g>
<!-- 17&#45;&gt;18 -->
<g id="edge20" class="edge">
<title>17&#45;&gt;18</title>
<path fill="none" stroke="black" d="M984.77,-431.7C972.88,-423.03 958.31,-412.4 945.36,-402.96"/>
<polygon fill="black" stroke="black" points="947.66,-400.3 937.51,-397.24 943.53,-405.96 947.66,-400.3"/>
</g>
<!-- 20 -->
<g id="node21" class="node">
<title>20</title>
<polygon fill="none" stroke="black" points="1004.62,-252 896.38,-252 896.38,-216 1004.62,-216 1004.62,-252"/>
<text xml:space="preserve" text-anchor="middle" x="950.5" y="-228.95" font-family="Times,serif" font-size="14.00">terraphim_router</text>
</g>
<!-- 17&#45;&gt;20 -->
<g id="edge21" class="edge">
<title>17&#45;&gt;20</title>
<path fill="none" stroke="black" stroke-dasharray="1,5" d="M1005.89,-431.79C1002.99,-413.76 997.87,-384.67 991.5,-360 982.73,-326.06 969.74,-287.88 960.74,-262.75"/>
<polygon fill="black" stroke="black" points="964.12,-261.82 957.43,-253.61 957.54,-264.2 964.12,-261.82"/>
</g>
<!-- 18&#45;&gt;7 -->
<g id="edge22" class="edge">
<title>18&#45;&gt;7</title>
<path fill="none" stroke="black" d="M908.79,-359.7C907.21,-352.32 905.33,-343.52 903.55,-335.25"/>
<polygon fill="black" stroke="black" points="907,-334.63 901.48,-325.58 900.16,-336.1 907,-334.63"/>
</g>
<!-- 19 -->
<g id="node20" class="node">
<title>19</title>
<polygon fill="none" stroke="black" points="1041.88,-684 917.12,-684 917.12,-648 1041.88,-648 1041.88,-684"/>
<text xml:space="preserve" text-anchor="middle" x="979.5" y="-660.95" font-family="Times,serif" font-size="14.00">terraphim_test_utils</text>
</g>
<!-- 20&#45;&gt;1 -->
<g id="edge23" class="edge">
<title>20&#45;&gt;1</title>
<path fill="none" stroke="black" d="M950.5,-215.85C950.5,-179.14 950.5,-92.66 950.5,-47.53"/>
<polygon fill="black" stroke="black" points="954,-47.75 950.5,-37.75 947,-47.75 954,-47.75"/>
</g>
<!-- 21 -->
<g id="node22" class="node">
<title>21</title>
<polygon fill="none" stroke="black" points="1100,-108 979,-108 979,-72 1100,-72 1100,-108"/>
<text xml:space="preserve" text-anchor="middle" x="1039.5" y="-84.95" font-family="Times,serif" font-size="14.00">terraphim_spawner</text>
</g>
<!-- 21&#45;&gt;1 -->
<g id="edge24" class="edge">
<title>21&#45;&gt;1</title>
<path fill="none" stroke="black" d="M1017.5,-71.7C1006.59,-63.11 993.23,-52.61 981.32,-43.24"/>
<polygon fill="black" stroke="black" points="983.77,-40.71 973.75,-37.28 979.44,-46.22 983.77,-40.71"/>
</g>
<!-- 22&#45;&gt;8 -->
<g id="edge26" class="edge">
<title>22&#45;&gt;8</title>
<path fill="none" stroke="black" stroke-dasharray="1,5" d="M760.2,-431.52C773.43,-422.69 787.45,-410.71 795.5,-396 818.31,-354.33 817.52,-297.4 814.36,-263.59"/>
<polygon fill="black" stroke="black" points="817.85,-263.32 813.29,-253.76 810.89,-264.08 817.85,-263.32"/>
</g>
<!-- 23 -->
<g id="node24" class="node">
<title>23</title>
<polygon fill="none" stroke="black" points="786.88,-396 668.12,-396 668.12,-360 786.88,-360 786.88,-396"/>
<text xml:space="preserve" text-anchor="middle" x="727.5" y="-372.95" font-family="Times,serif" font-size="14.00">terraphim_ccusage</text>
</g>
<!-- 22&#45;&gt;23 -->
<g id="edge25" class="edge">
<title>22&#45;&gt;23</title>
<path fill="none" stroke="black" stroke-dasharray="1,5" d="M727.5,-431.7C727.5,-424.41 727.5,-415.73 727.5,-407.54"/>
<polygon fill="black" stroke="black" points="731,-407.62 727.5,-397.62 724,-407.62 731,-407.62"/>
</g>
<!-- 24 -->
<g id="node25" class="node">
<title>24</title>
<polygon fill="none" stroke="black" points="1287.12,-540 1181.88,-540 1181.88,-504 1287.12,-504 1287.12,-540"/>
<text xml:space="preserve" text-anchor="middle" x="1234.5" y="-516.95" font-family="Times,serif" font-size="14.00">terraphim_agent</text>
</g>
<!-- 24&#45;&gt;17 -->
<g id="edge29" class="edge">
<title>24&#45;&gt;17</title>
<path fill="none" stroke="black" d="M1181.51,-504.59C1149.84,-494.78 1109.32,-482.23 1075.45,-471.74"/>
<polygon fill="black" stroke="black" points="1076.74,-468.47 1066.15,-468.86 1074.67,-475.16 1076.74,-468.47"/>
</g>
<!-- 25 -->
<g id="node26" class="node">
<title>25</title>
<polygon fill="none" stroke="black" points="1400.62,-468 1292.38,-468 1292.38,-432 1400.62,-432 1400.62,-468"/>
<text xml:space="preserve" text-anchor="middle" x="1346.5" y="-444.95" font-family="Times,serif" font-size="14.00">terraphim_hooks</text>
</g>
<!-- 24&#45;&gt;25 -->
<g id="edge27" class="edge">
<title>24&#45;&gt;25</title>
<path fill="none" stroke="black" d="M1262.47,-503.52C1276.61,-494.68 1293.96,-483.84 1309.22,-474.3"/>
<polygon fill="black" stroke="black" points="1310.97,-477.33 1317.6,-469.06 1307.26,-471.39 1310.97,-477.33"/>
</g>
<!-- 26 -->
<g id="node27" class="node">
<title>26</title>
<polygon fill="none" stroke="black" points="1178.75,-324 1038.25,-324 1038.25,-288 1178.75,-288 1178.75,-324"/>
<text xml:space="preserve" text-anchor="middle" x="1108.5" y="-300.95" font-family="Times,serif" font-size="14.00">terraphim_orchestrator</text>
</g>
<!-- 24&#45;&gt;26 -->
<g id="edge28" class="edge">
<title>24&#45;&gt;26</title>
<path fill="none" stroke="black" d="M1231.23,-503.53C1227.31,-485.02 1219.7,-455.32 1207.5,-432 1187.61,-393.99 1155.52,-356.19 1133.29,-332.28"/>
<polygon fill="black" stroke="black" points="1136.04,-330.09 1126.63,-325.22 1130.95,-334.9 1136.04,-330.09"/>
</g>
<!-- 28 -->
<g id="node29" class="node">
<title>28</title>
<polygon fill="none" stroke="black" points="1693.62,-468 1573.38,-468 1573.38,-432 1693.62,-432 1693.62,-468"/>
<text xml:space="preserve" text-anchor="middle" x="1633.5" y="-444.95" font-family="Times,serif" font-size="14.00">terraphim_sessions</text>
</g>
<!-- 24&#45;&gt;28 -->
<g id="edge30" class="edge">
<title>24&#45;&gt;28</title>
<path fill="none" stroke="black" stroke-dasharray="1,5" d="M1287.5,-506.05C1290.54,-505.32 1293.55,-504.63 1296.5,-504 1387.41,-484.45 1493.57,-468.95 1562.08,-459.88"/>
<polygon fill="black" stroke="black" points="1562.2,-463.39 1571.66,-458.62 1561.29,-456.45 1562.2,-463.39"/>
</g>
<!-- 29 -->
<g id="node30" class="node">
<title>29</title>
<polygon fill="none" stroke="black" points="1198.5,-468 1086.5,-468 1086.5,-432 1198.5,-432 1198.5,-468"/>
<text xml:space="preserve" text-anchor="middle" x="1142.5" y="-444.95" font-family="Times,serif" font-size="14.00">terraphim_update</text>
</g>
<!-- 24&#45;&gt;29 -->
<g id="edge31" class="edge">
<title>24&#45;&gt;29</title>
<path fill="none" stroke="black" d="M1211.76,-503.7C1200.48,-495.11 1186.67,-484.61 1174.36,-475.24"/>
<polygon fill="black" stroke="black" points="1176.58,-472.53 1166.5,-469.26 1172.34,-478.1 1176.58,-472.53"/>
</g>
<!-- 25&#45;&gt;6 -->
<g id="edge32" class="edge">
<title>25&#45;&gt;6</title>
<path fill="none" stroke="black" d="M1381.69,-431.64C1435.48,-402.86 1536.17,-339.64 1576.5,-252 1583.19,-237.46 1586.22,-228.71 1576.5,-216 1561.58,-196.48 1504.59,-182.45 1456.05,-173.75"/>
<polygon fill="black" stroke="black" points="1456.83,-170.33 1446.38,-172.07 1455.63,-177.23 1456.83,-170.33"/>
</g>
<!-- 26&#45;&gt;6 -->
<g id="edge33" class="edge">
<title>26&#45;&gt;6</title>
<path fill="none" stroke="black" d="M1097.08,-287.55C1085.83,-267.96 1072.59,-236.25 1089.5,-216 1116.68,-183.44 1229.69,-170.84 1306.88,-165.99"/>
<polygon fill="black" stroke="black" points="1306.71,-169.51 1316.48,-165.42 1306.29,-162.52 1306.71,-169.51"/>
</g>
<!-- 26&#45;&gt;8 -->
<g id="edge34" class="edge">
<title>26&#45;&gt;8</title>
<path fill="none" stroke="black" d="M1037.88,-288.41C993.44,-277.97 935.99,-264.48 889.96,-253.66"/>
<polygon fill="black" stroke="black" points="890.83,-250.27 880.29,-251.39 889.23,-257.09 890.83,-250.27"/>
</g>
<!-- 26&#45;&gt;20 -->
<g id="edge35" class="edge">
<title>26&#45;&gt;20</title>
<path fill="none" stroke="black" d="M1069.04,-287.52C1048.13,-278.25 1022.24,-266.78 999.99,-256.93"/>
<polygon fill="black" stroke="black" points="1001.68,-253.85 991.12,-252.99 998.84,-260.25 1001.68,-253.85"/>
</g>
<!-- 26&#45;&gt;21 -->
<g id="edge36" class="edge">
<title>26&#45;&gt;21</title>
<path fill="none" stroke="black" d="M1096.5,-287.53C1090.08,-277.5 1082.49,-264.47 1077.5,-252 1059.64,-207.35 1048.89,-152.24 1043.58,-119.44"/>
<polygon fill="black" stroke="black" points="1047.1,-119.27 1042.11,-109.93 1040.18,-120.35 1047.1,-119.27"/>
</g>
<!-- 27 -->
<g id="node28" class="node">
<title>27</title>
<polygon fill="none" stroke="black" points="1212.25,-252 1098.75,-252 1098.75,-216 1212.25,-216 1212.25,-252"/>
<text xml:space="preserve" text-anchor="middle" x="1155.5" y="-228.95" font-family="Times,serif" font-size="14.00">terraphim_tracker</text>
</g>
<!-- 26&#45;&gt;27 -->
<g id="edge37" class="edge">
<title>26&#45;&gt;27</title>
<path fill="none" stroke="black" d="M1120.12,-287.7C1125.41,-279.81 1131.8,-270.3 1137.68,-261.55"/>
<polygon fill="black" stroke="black" points="1140.5,-263.61 1143.17,-253.36 1134.69,-259.71 1140.5,-263.61"/>
</g>
<!-- 28&#45;&gt;4 -->
<g id="edge38" class="edge">
<title>28&#45;&gt;4</title>
<path fill="none" stroke="black" stroke-dasharray="1,5" d="M1633.5,-431.51C1633.5,-404.71 1633.5,-351.87 1633.5,-307 1633.5,-307 1633.5,-307 1633.5,-233 1633.5,-158.49 1548.84,-122.64 1477.66,-105.68"/>
<polygon fill="black" stroke="black" points="1478.82,-102.35 1468.29,-103.55 1477.27,-109.18 1478.82,-102.35"/>
</g>
<!-- 28&#45;&gt;5 -->
<g id="edge39" class="edge">
<title>28&#45;&gt;5</title>
<path fill="none" stroke="black" stroke-dasharray="1,5" d="M1660.97,-431.52C1674.86,-422.68 1691.9,-411.84 1706.88,-402.3"/>
<polygon fill="black" stroke="black" points="1708.54,-405.39 1715.1,-397.07 1704.78,-399.49 1708.54,-405.39"/>
</g>
<!-- 30 -->
<g id="node31" class="node">
<title>30</title>
<polygon fill="none" stroke="black" points="1210.62,-684 1060.38,-684 1060.38,-648 1210.62,-648 1210.62,-684"/>
<text xml:space="preserve" text-anchor="middle" x="1135.5" y="-660.95" font-family="Times,serif" font-size="14.00">terraphim_atomic_client</text>
</g>
<!-- 31 -->
<g id="node32" class="node">
<title>31</title>
<polygon fill="none" stroke="black" points="1164.12,-540 1076.88,-540 1076.88,-504 1164.12,-504 1164.12,-540"/>
<text xml:space="preserve" text-anchor="middle" x="1120.5" y="-516.95" font-family="Times,serif" font-size="14.00">terraphim&#45;cli</text>
</g>
<!-- 31&#45;&gt;17 -->
<g id="edge41" class="edge">
<title>31&#45;&gt;17</title>
<path fill="none" stroke="black" d="M1092.53,-503.52C1078.39,-494.68 1061.04,-483.84 1045.78,-474.3"/>
<polygon fill="black" stroke="black" points="1047.74,-471.39 1037.4,-469.06 1044.03,-477.33 1047.74,-471.39"/>
</g>
<!-- 31&#45;&gt;22 -->
<g id="edge43" class="edge">
<title>31&#45;&gt;22</title>
<path fill="none" stroke="black" stroke-dasharray="1,5" d="M1076.42,-506.2C1073.42,-505.4 1070.42,-504.65 1067.5,-504 949.89,-477.72 914.33,-491.37 792.61,-468.24"/>
<polygon fill="black" stroke="black" points="793.31,-464.81 782.83,-466.33 791.97,-471.68 793.31,-464.81"/>
</g>
<!-- 31&#45;&gt;25 -->
<g id="edge40" class="edge">
<title>31&#45;&gt;25</title>
<path fill="none" stroke="black" d="M1164.45,-506.56C1167.17,-505.69 1169.87,-504.83 1172.5,-504 1208.35,-492.68 1248.48,-480.43 1281.16,-470.56"/>
<polygon fill="black" stroke="black" points="1281.93,-473.98 1290.49,-467.74 1279.91,-467.28 1281.93,-473.98"/>
</g>
<!-- 31&#45;&gt;29 -->
<g id="edge42" class="edge">
<title>31&#45;&gt;29</title>
<path fill="none" stroke="black" d="M1125.94,-503.7C1128.28,-496.24 1131.08,-487.32 1133.71,-478.97"/>
<polygon fill="black" stroke="black" points="1137.01,-480.14 1136.67,-469.55 1130.33,-478.04 1137.01,-480.14"/>
</g>
<!-- 32 -->
<g id="node33" class="node">
<title>32</title>
<polygon fill="none" stroke="black" points="1383.88,-684 1229.12,-684 1229.12,-648 1383.88,-648 1383.88,-684"/>
<text xml:space="preserve" text-anchor="middle" x="1306.5" y="-660.95" font-family="Times,serif" font-size="14.00">terraphim_codebase_eval</text>
</g>
<!-- 33 -->
<g id="node34" class="node">
<title>33</title>
<polygon fill="none" stroke="black" points="1501.12,-684 1401.88,-684 1401.88,-648 1501.12,-648 1501.12,-684"/>
<text xml:space="preserve" text-anchor="middle" x="1451.5" y="-660.95" font-family="Times,serif" font-size="14.00">terraphim_dsm</text>
</g>
<!-- 34 -->
<g id="node35" class="node">
<title>34</title>
<polygon fill="none" stroke="black" points="1978.12,-396 1842.88,-396 1842.88,-360 1978.12,-360 1978.12,-396"/>
<text xml:space="preserve" text-anchor="middle" x="1910.5" y="-372.95" font-family="Times,serif" font-size="14.00">terraphim_file_search</text>
</g>
<!-- 34&#45;&gt;6 -->
<g id="edge44" class="edge">
<title>34&#45;&gt;6</title>
<path fill="none" stroke="black" d="M1883.84,-359.61C1832.67,-326.96 1716.28,-256.16 1609.5,-216 1559.71,-197.27 1501.22,-183.84 1455.95,-175.18"/>
<polygon fill="black" stroke="black" points="1456.7,-171.76 1446.23,-173.36 1455.41,-178.64 1456.7,-171.76"/>
</g>
<!-- 35 -->
<g id="node36" class="node">
<title>35</title>
<polygon fill="none" stroke="black" points="333.88,-540 173.12,-540 173.12,-504 333.88,-504 333.88,-540"/>
<text xml:space="preserve" text-anchor="middle" x="253.5" y="-516.95" font-family="Times,serif" font-size="14.00">terraphim_goal_alignment</text>
</g>
<!-- 35&#45;&gt;13 -->
<g id="edge45" class="edge">
<title>35&#45;&gt;13</title>
<path fill="none" stroke="black" d="M266.11,-503.7C271.91,-495.73 278.93,-486.1 285.36,-477.26"/>
<polygon fill="black" stroke="black" points="288.09,-479.47 291.15,-469.33 282.43,-475.35 288.09,-479.47"/>
</g>
<!-- 36 -->
<g id="node37" class="node">
<title>36</title>
<polygon fill="none" stroke="black" points="482.88,-540 352.12,-540 352.12,-504 482.88,-504 482.88,-540"/>
<text xml:space="preserve" text-anchor="middle" x="417.5" y="-516.95" font-family="Times,serif" font-size="14.00">terraphim_kg_agents</text>
</g>
<!-- 36&#45;&gt;13 -->
<g id="edge46" class="edge">
<title>36&#45;&gt;13</title>
<path fill="none" stroke="black" d="M389.28,-503.52C375.01,-494.68 357.51,-483.84 342.12,-474.3"/>
<polygon fill="black" stroke="black" points="343.99,-471.35 333.65,-469.06 340.31,-477.3 343.99,-471.35"/>
</g>
<!-- 37 -->
<g id="node38" class="node">
<title>37</title>
<polygon fill="none" stroke="black" points="742.88,-324 558.12,-324 558.12,-288 742.88,-288 742.88,-324"/>
<text xml:space="preserve" text-anchor="middle" x="650.5" y="-300.95" font-family="Times,serif" font-size="14.00">terraphim_task_decomposition</text>
</g>
<!-- 36&#45;&gt;37 -->
<g id="edge47" class="edge">
<title>36&#45;&gt;37</title>
<path fill="none" stroke="black" d="M418.63,-503.72C421.72,-470.94 433.08,-399.49 474.5,-360 487.22,-347.88 521.55,-336.38 556.56,-327.21"/>
<polygon fill="black" stroke="black" points="557.13,-330.68 565.96,-324.81 555.4,-323.89 557.13,-330.68"/>
</g>
<!-- 37&#45;&gt;16 -->
<g id="edge48" class="edge">
<title>37&#45;&gt;16</title>
<path fill="none" stroke="black" d="M652.23,-287.7C652.96,-280.41 653.83,-271.73 654.65,-263.54"/>
<polygon fill="black" stroke="black" points="658.13,-263.91 655.64,-253.61 651.16,-263.21 658.13,-263.91"/>
</g>
<!-- 38 -->
<g id="node39" class="node">
<title>38</title>
<polygon fill="none" stroke="black" points="1354.88,-252 1230.12,-252 1230.12,-216 1354.88,-216 1354.88,-252"/>
<text xml:space="preserve" text-anchor="middle" x="1292.5" y="-228.95" font-family="Times,serif" font-size="14.00">terraphim_kg_linter</text>
</g>
<!-- 38&#45;&gt;6 -->
<g id="edge49" class="edge">
<title>38&#45;&gt;6</title>
<path fill="none" stroke="black" d="M1314.5,-215.7C1325.41,-207.11 1338.77,-196.61 1350.68,-187.24"/>
<polygon fill="black" stroke="black" points="1352.56,-190.22 1358.25,-181.28 1348.23,-184.71 1352.56,-190.22"/>
</g>
<!-- 39 -->
<g id="node40" class="node">
<title>39</title>
<polygon fill="none" stroke="black" points="649.88,-396 483.12,-396 483.12,-360 649.88,-360 649.88,-396"/>
<text xml:space="preserve" text-anchor="middle" x="566.5" y="-372.95" font-family="Times,serif" font-size="14.00">terraphim_kg_orchestration</text>
</g>
<!-- 39&#45;&gt;15 -->
<g id="edge50" class="edge">
<title>39&#45;&gt;15</title>
<path fill="none" stroke="black" d="M538.78,-359.52C524.76,-350.68 507.57,-339.84 492.45,-330.3"/>
<polygon fill="black" stroke="black" points="494.48,-327.44 484.15,-325.07 490.74,-333.36 494.48,-327.44"/>
</g>
<!-- 39&#45;&gt;37 -->
<g id="edge51" class="edge">
<title>39&#45;&gt;37</title>
<path fill="none" stroke="black" d="M587.26,-359.7C597.46,-351.2 609.92,-340.81 621.08,-331.51"/>
<polygon fill="black" stroke="black" points="623.08,-334.41 628.52,-325.32 618.6,-329.03 623.08,-334.41"/>
</g>
<!-- 40 -->
<g id="node41" class="node">
<title>40</title>
<polygon fill="none" stroke="black" points="1445.38,-540 1305.62,-540 1305.62,-504 1445.38,-504 1445.38,-540"/>
<text xml:space="preserve" text-anchor="middle" x="1375.5" y="-516.95" font-family="Times,serif" font-size="14.00">terraphim_mcp_server</text>
</g>
<!-- 40&#45;&gt;17 -->
<g id="edge54" class="edge">
<title>40&#45;&gt;17</title>
<path fill="none" stroke="black" d="M1305.32,-505.71C1302.35,-505.12 1299.39,-504.55 1296.5,-504 1199.59,-485.62 1174.13,-487.81 1077.5,-468 1077.38,-467.98 1077.27,-467.95 1077.15,-467.93"/>
<polygon fill="black" stroke="black" points="1078.02,-464.54 1067.51,-465.85 1076.55,-471.38 1078.02,-464.54"/>
</g>
<!-- 40&#45;&gt;25 -->
<g id="edge53" class="edge">
<title>40&#45;&gt;25</title>
<path fill="none" stroke="black" d="M1368.33,-503.7C1365.21,-496.15 1361.46,-487.12 1357.97,-478.68"/>
<polygon fill="black" stroke="black" points="1361.23,-477.4 1354.17,-469.5 1354.76,-480.08 1361.23,-477.4"/>
</g>
<!-- 40&#45;&gt;34 -->
<g id="edge52" class="edge">
<title>40&#45;&gt;34</title>
<path fill="none" stroke="black" d="M1445.8,-514.61C1512.77,-507.36 1615.92,-493.13 1702.5,-468 1761.14,-450.98 1825.27,-421.81 1866.59,-401.52"/>
<polygon fill="black" stroke="black" points="1868.09,-404.69 1875.49,-397.11 1864.98,-398.42 1868.09,-404.69"/>
</g>
<!-- 41 -->
<g id="node42" class="node">
<title>41</title>
<polygon fill="none" stroke="black" points="1567.75,-252 1373.25,-252 1373.25,-216 1567.75,-216 1567.75,-252"/>
<text xml:space="preserve" text-anchor="middle" x="1470.5" y="-228.95" font-family="Times,serif" font-size="14.00">terraphim_negative_contribution</text>
</g>
<!-- 41&#45;&gt;6 -->
<g id="edge55" class="edge">
<title>41&#45;&gt;6</title>
<path fill="none" stroke="black" d="M1448.5,-215.7C1437.59,-207.11 1424.23,-196.61 1412.32,-187.24"/>
<polygon fill="black" stroke="black" points="1414.77,-184.71 1404.75,-181.28 1410.44,-190.22 1414.77,-184.71"/>
</g>
<!-- 42 -->
<g id="node43" class="node">
<title>42</title>
<polygon fill="none" stroke="black" points="912.25,-540 816.75,-540 816.75,-504 912.25,-504 912.25,-540"/>
<text xml:space="preserve" text-anchor="middle" x="864.5" y="-516.95" font-family="Times,serif" font-size="14.00">terraphim_rlm</text>
</g>
<!-- 42&#45;&gt;15 -->
<g id="edge57" class="edge">
<title>42&#45;&gt;15</title>
<path fill="none" stroke="black" stroke-dasharray="1,5" d="M816.32,-512.04C722.33,-493.57 519.7,-448.56 474.5,-396 460.23,-379.41 455.84,-354.73 454.82,-335.56"/>
<polygon fill="black" stroke="black" points="458.32,-335.62 454.59,-325.7 451.32,-335.78 458.32,-335.62"/>
</g>
<!-- 42&#45;&gt;17 -->
<g id="edge58" class="edge">
<title>42&#45;&gt;17</title>
<path fill="none" stroke="black" stroke-dasharray="1,5" d="M900.47,-503.52C919.34,-494.34 942.65,-483.01 962.79,-473.22"/>
<polygon fill="black" stroke="black" points="964.17,-476.44 971.63,-468.92 961.11,-470.15 964.17,-476.44"/>
</g>
<!-- 43 -->
<g id="node44" class="node">
<title>43</title>
<polygon fill="none" stroke="black" points="931.62,-468 799.38,-468 799.38,-432 931.62,-432 931.62,-468"/>
<text xml:space="preserve" text-anchor="middle" x="865.5" y="-444.95" font-family="Times,serif" font-size="14.00">terraphim&#45;firecracker</text>
</g>
<!-- 42&#45;&gt;43 -->
<g id="edge56" class="edge">
<title>42&#45;&gt;43</title>
<path fill="none" stroke="black" d="M864.75,-503.7C864.85,-496.41 864.98,-487.73 865.09,-479.54"/>
<polygon fill="black" stroke="black" points="868.59,-479.67 865.23,-469.62 861.59,-479.57 868.59,-479.67"/>
</g>
<!-- 44 -->
<g id="node45" class="node">
<title>44</title>
<polygon fill="none" stroke="black" points="1641.75,-684 1519.25,-684 1519.25,-648 1641.75,-648 1641.75,-684"/>
<text xml:space="preserve" text-anchor="middle" x="1580.5" y="-660.95" font-family="Times,serif" font-size="14.00">terraphim_tinyclaw</text>
</g>
<!-- 45 -->
<g id="node46" class="node">
<title>45</title>
<polygon fill="none" stroke="black" points="714.5,-684 584.5,-684 584.5,-648 714.5,-648 714.5,-684"/>
<text xml:space="preserve" text-anchor="middle" x="649.5" y="-660.95" font-family="Times,serif" font-size="14.00">terraphim_validation</text>
</g>
<!-- 46 -->
<g id="node47" class="node">
<title>46</title>
<polygon fill="none" stroke="black" points="704,-612 595,-612 595,-576 704,-576 704,-612"/>
<text xml:space="preserve" text-anchor="middle" x="649.5" y="-588.95" font-family="Times,serif" font-size="14.00">terraphim_server</text>
</g>
<!-- 45&#45;&gt;46 -->
<g id="edge59" class="edge">
<title>45&#45;&gt;46</title>
<path fill="none" stroke="black" d="M649.5,-647.7C649.5,-640.41 649.5,-631.73 649.5,-623.54"/>
<polygon fill="black" stroke="black" points="653,-623.62 649.5,-613.62 646,-623.62 653,-623.62"/>
</g>
<!-- 46&#45;&gt;11 -->
<g id="edge60" class="edge">
<title>46&#45;&gt;11</title>
<path fill="none" stroke="black" d="M649.5,-575.7C649.5,-568.41 649.5,-559.73 649.5,-551.54"/>
<polygon fill="black" stroke="black" points="653,-551.62 649.5,-541.62 646,-551.62 653,-551.62"/>
</g>
<!-- 47 -->
<g id="node48" class="node">
<title>47</title>
<polygon fill="none" stroke="black" points="1793.38,-684 1659.62,-684 1659.62,-648 1793.38,-648 1793.38,-684"/>
<text xml:space="preserve" text-anchor="middle" x="1726.5" y="-660.95" font-family="Times,serif" font-size="14.00">terraphim_workspace</text>
</g>
<!-- 48 -->
<g id="node49" class="node">
<title>48</title>
<polygon fill="none" stroke="black" points="1058.38,-540 930.62,-540 930.62,-504 1058.38,-504 1058.38,-540"/>
<text xml:space="preserve" text-anchor="middle" x="994.5" y="-516.95" font-family="Times,serif" font-size="14.00">terraphim_ai_nodejs</text>
</g>
<!-- 48&#45;&gt;17 -->
<g id="edge61" class="edge">
<title>48&#45;&gt;17</title>
<path fill="none" stroke="black" d="M997.96,-503.7C999.44,-496.32 1001.2,-487.52 1002.85,-479.25"/>
<polygon fill="black" stroke="black" points="1006.25,-480.08 1004.78,-469.59 999.39,-478.71 1006.25,-480.08"/>
</g>
</g>
</svg>
